<svg width="42" height="40" viewBox="0 0 42 40" fill="none" xmlns="http://www.w3.org/2000/svg">
<ellipse cx="21" cy="20" rx="21" ry="20" fill="#F1291E"/>
<path d="M10 18.5C9.17157 18.5 8.5 19.1716 8.5 20C8.5 20.8284 9.17157 21.5 10 21.5L10 18.5ZM33.0607 21.0607C33.6464 20.4749 33.6464 19.5251 33.0607 18.9393L23.5147 9.3934C22.9289 8.80761 21.9792 8.80761 21.3934 9.3934C20.8076 9.97919 20.8076 10.9289 21.3934 11.5147L29.8787 20L21.3934 28.4853C20.8076 29.0711 20.8076 30.0208 21.3934 30.6066C21.9792 31.1924 22.9289 31.1924 23.5147 30.6066L33.0607 21.0607ZM10 21.5L32 21.5L32 18.5L10 18.5L10 21.5Z" fill="white"/>
</svg>
