<svg width="51" height="52" viewBox="0 0 51 52" fill="none" xmlns="http://www.w3.org/2000/svg">
<path d="M4.63623 19.6602H42.8862M13.1362 6.87976V11.1399M34.3862 6.87976V11.1399M11.4362 45.2212H36.0862C38.4664 45.2212 39.6567 45.2212 40.5657 44.7568C41.3654 44.3485 42.0156 43.6967 42.423 42.8951C42.8862 41.9839 42.8862 40.7908 42.8862 38.4049V17.9562C42.8862 15.5702 42.8862 14.3773 42.423 13.466C42.0156 12.6644 41.3654 12.0127 40.5657 11.6043C39.6567 11.1399 38.4664 11.1399 36.0862 11.1399H11.4362C9.05602 11.1399 7.86589 11.1399 6.95677 11.6043C6.15707 12.0127 5.50691 12.6644 5.09946 13.466C4.63623 14.3773 4.63623 15.5702 4.63623 17.9562V38.4049C4.63623 40.7908 4.63623 41.9839 5.09946 42.8951C5.50691 43.6967 6.15707 44.3485 6.95677 44.7568C7.86589 45.2212 9.056 45.2212 11.4362 45.2212Z" stroke="#F1291E" stroke-width="5.5" stroke-linecap="round"/>
<ellipse cx="14.2951" cy="27.406" rx="1.93182" ry="1.93643" fill="#F1291E"/>
<ellipse cx="26.6589" cy="27.406" rx="1.93182" ry="1.93643" fill="#F1291E"/>
<ellipse cx="32.8405" cy="27.406" rx="1.93182" ry="1.93643" fill="#F1291E"/>
<ellipse cx="14.2951" cy="35.1517" rx="1.93182" ry="1.93643" fill="#F1291E"/>
<ellipse cx="20.4767" cy="27.406" rx="1.93182" ry="1.93643" fill="#F1291E"/>
<ellipse cx="26.6589" cy="35.1517" rx="1.93182" ry="1.93643" fill="#F1291E"/>
<ellipse cx="32.8405" cy="35.1517" rx="1.93182" ry="1.93643" fill="#F1291E"/>
<ellipse cx="20.4767" cy="35.1517" rx="1.93182" ry="1.93643" fill="#F1291E"/>
</svg>
