<svg width="40" height="40" viewBox="0 0 40 40" fill="none" xmlns="http://www.w3.org/2000/svg">
<path d="M20 0C31.0457 2.57703e-07 40 8.95431 40 20C40 31.0457 31.0457 40 20 40C8.95431 40 2.5772e-07 31.0457 0 20C0 8.9543 8.9543 0 20 0ZM20.6592 7.33301C14.1041 7.33301 8.76921 12.6685 8.7666 19.2256C8.76578 21.3215 9.31284 23.3674 10.3535 25.1709L8.66699 31.333L14.9707 29.6797C16.7077 30.6272 18.6639 31.1263 20.6543 31.127H20.6592C27.2162 31.1243 32.5491 25.79 32.5518 19.2344C32.553 16.0569 31.3174 13.069 29.0723 10.8213C26.827 8.57335 23.8406 7.3344 20.6592 7.33301Z" fill="#98A1AB"/>
<path d="M20.663 9.34204C23.303 9.34296 25.785 10.3722 27.6512 12.2405C29.5174 14.1088 30.5448 16.5925 30.5438 19.2336C30.5416 24.684 26.1072 29.1184 20.6591 29.1184H20.6552C18.8814 29.1177 17.1415 28.6411 15.6239 27.7405L15.2635 27.5266L11.5223 28.5081L12.5204 24.8606L12.286 24.4866C11.2965 22.9128 10.7735 21.0936 10.7743 19.2258C10.7765 13.7759 15.2107 9.34211 20.663 9.34204Z" fill="#98A1AB"/>
<path d="M20.663 9.34204L20.6631 8.84204H20.663L20.663 9.34204ZM27.6512 12.2405L28.005 11.8871L28.005 11.8871L27.6512 12.2405ZM30.5438 19.2336L31.0438 19.2338V19.2338L30.5438 19.2336ZM20.6552 29.1184L20.655 29.6184H20.6552V29.1184ZM15.6239 27.7405L15.3687 28.1705L15.3687 28.1705L15.6239 27.7405ZM15.2635 27.5266L15.5187 27.0966L15.3389 26.9899L15.1367 27.043L15.2635 27.5266ZM11.5223 28.5081L11.0401 28.3761L10.8115 29.2115L11.6492 28.9917L11.5223 28.5081ZM12.5204 24.8606L13.0027 24.9926L13.0606 24.781L12.9441 24.5951L12.5204 24.8606ZM12.286 24.4866L12.7097 24.2211L12.7093 24.2204L12.286 24.4866ZM10.7743 19.2258L11.2743 19.226V19.226L10.7743 19.2258ZM20.663 9.34204L20.6628 9.84204C23.1702 9.84291 25.525 10.8194 27.2975 12.5938L27.6512 12.2405L28.005 11.8871C26.045 9.92501 23.4359 8.843 20.6631 8.84204L20.663 9.34204ZM27.6512 12.2405L27.2975 12.5938C29.07 14.3684 30.0447 16.7249 30.0438 19.2335L30.5438 19.2336L31.0438 19.2338C31.0448 16.4601 29.9649 13.8493 28.005 11.8871L27.6512 12.2405ZM30.5438 19.2336L30.0438 19.2334C30.0418 24.4079 25.8309 28.6184 20.6591 28.6184V29.1184V29.6184C26.3834 29.6184 31.0415 24.9601 31.0438 19.2338L30.5438 19.2336ZM20.6591 29.1184V28.6184H20.6552V29.1184V29.6184H20.6591V29.1184ZM20.6552 29.1184L20.6553 28.6184C18.9709 28.6177 17.3192 28.1651 15.8791 27.3105L15.6239 27.7405L15.3687 28.1705C16.9639 29.1171 18.792 29.6177 20.655 29.6184L20.6552 29.1184ZM15.6239 27.7405L15.8791 27.3105L15.5187 27.0966L15.2635 27.5266L15.0084 27.9566L15.3687 28.1705L15.6239 27.7405ZM15.2635 27.5266L15.1367 27.043L11.3955 28.0244L11.5223 28.5081L11.6492 28.9917L15.3904 28.0102L15.2635 27.5266ZM11.5223 28.5081L12.0046 28.64L13.0027 24.9926L12.5204 24.8606L12.0381 24.7286L11.0401 28.3761L11.5223 28.5081ZM12.5204 24.8606L12.9441 24.5951L12.7097 24.2211L12.286 24.4866L11.8623 24.7521L12.0967 25.1261L12.5204 24.8606ZM12.286 24.4866L12.7093 24.2204C11.7702 22.7268 11.2736 21 11.2743 19.226L10.7743 19.2258L10.2743 19.2256C10.2735 21.1872 10.8229 23.0988 11.8627 24.7527L12.286 24.4866ZM10.7743 19.2258L11.2743 19.226C11.2764 14.0522 15.4868 9.84211 20.663 9.84204L20.663 9.34204L20.663 8.84204C14.9346 8.84212 10.2766 13.4997 10.2743 19.2256L10.7743 19.2258Z" fill="white"/>
</svg>
