<svg width="26" height="16" viewBox="0 0 26 16" fill="none" xmlns="http://www.w3.org/2000/svg">
<path d="M10.4406 0.687499C7.84062 1.3375 4.79375 3.125 2.35625 5.48125C1.05625 6.7 0 7.8375 0 8C0 8.8125 5.0375 13.0781 7.3125 14.2156C9.54688 15.3125 10.3594 15.5156 13 15.5156C15.6406 15.5156 16.4531 15.3125 18.6875 14.2156C20.3125 13.4031 22.2625 11.9812 23.7656 10.4781L26.1625 8L23.9688 5.725C20.1094 1.825 14.4219 -0.287501 10.4406 0.687499ZM18.5656 3.08437C19.9062 3.81562 21.8156 5.19687 22.7906 6.2125L24.5375 8L22.7906 9.7875C21.8156 10.8031 19.9062 12.225 18.525 12.9562C16.3312 14.1344 15.6812 14.2969 13 14.2969C10.3188 14.2969 9.66875 14.1344 7.475 12.9562C6.09375 12.225 4.18437 10.8031 3.20937 9.7875L1.4625 8L3.04688 6.33437C7.75937 1.5 13.3656 0.321874 18.5656 3.08437Z" fill="#455A64"/>
<path d="M10.5624 3.40934C6.70304 5.39996 7.02804 11.25 11.0905 12.8343C15.3562 14.4593 19.4593 10.3562 17.8343 6.09059C16.7374 3.24684 13.3249 1.98746 10.5624 3.40934ZM14.9905 4.50621C17.7124 5.92809 17.6312 10.3156 14.828 11.575C11.1312 13.2406 7.55616 9.50309 9.50616 6.00934C10.5624 4.09996 12.9187 3.44996 14.9905 4.50621Z" fill="#455A64"/>
<path d="M11.4563 6.4562C10.8469 7.06558 10.8469 8.93433 11.4563 9.5437C12.0657 10.1531 13.9344 10.1531 14.5438 9.5437C14.8282 9.25933 15.0313 8.5687 15.0313 7.99995C15.0313 6.65933 14.3407 5.9687 13 5.9687C12.4313 5.9687 11.7407 6.17183 11.4563 6.4562Z" fill="#455A64"/>
</svg>
