<svg width="70" height="75" viewBox="0 0 70 75" fill="none" xmlns="http://www.w3.org/2000/svg">
<ellipse cx="1.44128" cy="1.7109" rx="1.44128" ry="1.7109" transform="matrix(0.997995 -0.0632966 0.0523506 0.998629 8.94409 34.1612)" fill="#F1291E"/>
<path d="M26.5 35L19 20L4 26.5L7.5 35" stroke="#FC443A" stroke-width="3" stroke-linecap="round"/>
<path d="M52.8312 7.44722C50.4406 8.56716 45.4706 21.5153 47.2258 22.1506C47.9781 22.4228 49.4779 19.8461 50.7031 16.461C53.1989 9.56547 56.067 7.90942 57.3039 12.3274C58.3916 15.9825 60.8167 15.1587 60.1506 11.5144C59.3483 8.24625 55.734 6.08729 52.8312 7.44722Z" fill="black"/>
<path d="M31.3809 14.9977C31.154 15.6246 31.2719 25.8767 31.6429 37.7802C32.0138 49.6837 32.041 60.1866 31.6779 61.1896C31.3149 62.1926 31.6241 63.2971 32.251 63.524C33.0032 63.7962 33.8224 63.1001 34.1854 62.0971C34.5484 61.0942 41.2915 53.0417 49.1952 44.1331C57.0989 35.2246 63.7512 27.4228 63.9781 26.796C64.7949 24.5392 62.1752 24.7254 60.6407 27.006C59.7201 28.3744 57.978 28.8782 56.3481 28.2883C54.7182 27.6984 53.7021 26.1962 53.8706 24.5556C53.9936 23.0404 53.6497 21.6397 53.1483 21.4582C52.6468 21.2767 51.4861 22.1328 50.6108 23.3758C49.6902 24.7441 47.948 25.248 46.3182 24.6581C44.6883 24.0681 43.6722 22.566 43.8406 20.9254C43.9637 19.4101 43.6198 18.0095 43.1183 17.828C42.6168 17.6465 41.4562 18.5026 40.5809 19.7455C39.6603 21.1139 37.9181 21.6177 36.2883 21.0278C34.6584 20.4379 33.6423 18.9358 33.8107 17.2951C34.0914 14.5608 32.1977 12.741 31.3809 14.9977Z" fill="black"/>
<path d="M0 40C0 39.4477 0.447715 39 1 39H58C58.5523 39 59 39.4477 59 40V63C59 69.6274 53.6274 75 47 75H12C5.37258 75 0 69.6274 0 63V40Z" fill="#F1291E"/>
</svg>
