<svg width="39" height="40" viewBox="0 0 39 40" fill="none" xmlns="http://www.w3.org/2000/svg">
<path d="M19.5 0C30.2696 0 39 8.95431 39 20C39 31.0457 30.2696 40 19.5 40C8.73045 40 0 31.0457 0 20C2.5126e-07 8.95431 8.73045 0 19.5 0ZM12.3799 8.9541C11.8873 8.54302 11.2562 8.47127 10.5596 8.74805C9.82464 9.04062 8.44736 10.1791 7.8584 10.9736C7.3274 11.693 7.12268 12.2031 7.0918 12.875C7.06488 13.4284 7.11168 13.6586 7.39648 14.3662C9.62477 19.9162 12.9495 24.3479 17.5176 27.8662C19.9036 29.7043 22.3784 31.1038 24.9453 32.0605C26.4424 32.6179 27.0935 32.645 27.8594 32.1865C28.1829 31.9884 28.9835 31.1467 29.4297 30.5342C30.1682 29.5148 30.4415 29.0444 30.5186 28.6689C30.5724 28.4121 30.5297 27.9653 30.4297 27.6807C30.3836 27.5424 30.2762 27.3287 30.1992 27.2061C29.7143 26.455 27.1085 24.3636 25.8076 23.6797C25.0649 23.2884 24.5144 23.1578 24.1064 23.2803C23.668 23.4068 23.4368 23.6163 22.7021 24.5527C22.4058 24.9283 22.1013 25.2806 22.0205 25.3359C21.8204 25.4781 21.4283 25.5927 21.1514 25.5928C20.5087 25.5888 19.342 25.162 18.4453 24.6006C17.7488 24.1658 16.8559 23.387 16.1709 22.6162C15.3627 21.7109 14.8129 20.9121 14.3779 20.0107C13.8161 18.8525 13.6735 18.1448 13.9082 17.627C13.9659 17.4966 14.0426 17.358 14.0771 17.3145C14.1124 17.2745 14.4742 16.9704 14.874 16.6387C15.6591 15.9983 15.7864 15.8519 15.9326 15.4131C16.1172 14.8558 16.0669 14.2869 15.7822 13.7139C15.5628 13.279 14.9898 12.3295 14.5742 11.7168C14.0238 10.9103 12.6532 9.1874 12.3799 8.9541ZM19.9668 8.04297C19.2982 7.95515 19.1465 7.9612 18.9414 8.10156C18.5442 8.3676 18.5496 9.03111 18.9482 9.29297C19.0802 9.37622 19.1978 9.40577 19.7324 9.47754C20.5531 9.59086 21.0809 9.69785 21.707 9.87305C24.1632 10.5617 26.0527 11.97 27.3154 14.0596C28.372 15.8011 28.8103 17.5432 28.748 19.7676C28.7264 20.519 28.7425 20.6515 28.8545 20.832C29.0692 21.1688 29.6354 21.2355 29.9258 20.9561C30.1062 20.7859 30.1402 20.6579 30.1758 20.0146C30.1928 19.6789 30.1963 19.1827 30.1885 18.9121C30.1392 17.5427 29.915 16.4193 29.4463 15.167C28.9835 13.935 28.5145 13.1313 27.6299 12.0439C26.7936 11.0245 26.1444 10.4419 25.1143 9.79395C23.6769 8.89114 21.9271 8.29424 19.9668 8.04297ZM21.4141 11.0596C20.9625 10.9676 20.1321 10.8931 19.9883 10.9355C19.8537 10.9751 19.6631 11.1246 19.5781 11.2598C19.4883 11.4065 19.4674 11.7344 19.5439 11.9238C19.6676 12.2404 19.898 12.3524 20.542 12.4102C21.535 12.4993 22.5592 12.857 23.333 13.3867C24.2164 13.9898 24.9187 14.8149 25.373 15.7842C25.7655 16.617 26.0067 17.8169 26 18.8916C25.9978 19.2801 26.0568 19.4997 26.209 19.6602C26.439 19.9069 26.7744 19.9616 27.0703 19.7979C27.3983 19.6209 27.4747 19.31 27.417 18.3564C27.2797 15.9353 26.3565 13.9877 24.7041 12.6172C23.7731 11.8471 22.6476 11.3171 21.4141 11.0596ZM21.666 14.1221C20.9926 13.9545 20.7201 13.974 20.4766 14.2021C20.2499 14.416 20.2056 14.8447 20.3789 15.1221C20.5007 15.3232 20.6416 15.395 21.0322 15.4736C21.5531 15.5719 21.9137 15.6996 22.2412 15.8916C22.9362 16.3032 23.2592 16.9476 23.2939 17.9902C23.3101 18.4799 23.3518 18.631 23.5186 18.8047C23.8276 19.1219 24.3781 19.0595 24.6113 18.6797C24.6967 18.5368 24.7097 18.4737 24.7188 18.1416C24.7247 17.936 24.716 17.6303 24.6953 17.4658C24.6005 16.6756 24.3639 16.0545 23.9434 15.5049C23.3973 14.7972 22.6991 14.3735 21.666 14.1221Z" fill="#98A1AB"/>
</svg>
