<svg width="97" height="93" viewBox="0 0 97 93" fill="none" xmlns="http://www.w3.org/2000/svg">
<path d="M1.59984 18.5907L4.12822 59.1808C4.2181 60.6265 5.48749 61.757 7.02579 61.7613L84.6189 61.9842C86.2267 61.9889 87.534 60.7654 87.5391 59.2516L87.6415 27.648C87.6465 26.1271 86.3356 24.8935 84.7203 24.8985L37.0004 25.0509C36.2295 25.0533 35.489 24.7677 34.9411 24.2569L26.6724 16.5411C26.1292 16.0344 25.3966 15.7491 24.6321 15.7471L4.51495 15.6895C2.83664 15.6844 1.50137 17.0131 1.59984 18.5907Z" fill="#E8505B"/>
<path opacity="0.3" d="M1.59984 18.5907L4.12822 59.1808C4.2181 60.6265 5.48749 61.757 7.02579 61.7613L84.6189 61.9842C86.2267 61.9889 87.534 60.7654 87.5391 59.2516L87.6415 27.648C87.6465 26.1271 86.3356 24.8935 84.7203 24.8985L37.0004 25.0509C36.2295 25.0533 35.489 24.7677 34.9411 24.2569L26.6724 16.5411C26.1292 16.0344 25.3966 15.7491 24.6321 15.7471L4.51495 15.6895C2.83664 15.6844 1.50137 17.0131 1.59984 18.5907Z" fill="black"/>
<path d="M28.0021 0.428269L2.48486 31.9678L29.2645 51.1761L54.7818 19.6366L28.0021 0.428269Z" fill="white"/>
<path d="M27.9972 0.427734C27.9972 0.427734 27.9575 0.482019 27.8783 0.582154C27.7967 0.684986 27.6792 0.832658 27.5249 1.02652C27.2105 1.41863 26.7486 1.99449 26.1481 2.74365C24.941 4.24332 23.1786 6.43381 20.9434 9.21096C16.47 14.7561 10.1091 22.6408 2.54759 32.0144L2.53184 31.9045C10.5037 37.6189 19.6433 44.1702 29.3142 51.1025L29.3171 51.1045L29.1864 51.121C38.6375 39.4477 47.4211 28.5994 54.7148 19.5909L54.7295 19.6931C46.672 13.8944 39.9935 9.0879 35.3256 5.72815C32.9924 4.0444 31.1622 2.72376 29.9115 1.8212C29.2891 1.37042 28.8122 1.0245 28.4867 0.788832C28.1641 0.554172 27.9972 0.427734 27.9972 0.427734C27.9972 0.427734 28.1623 0.539334 28.4838 0.766577C28.809 0.997528 29.2859 1.33603 29.9079 1.77737C31.1608 2.67049 32.9945 3.97764 35.3324 5.64419C40.0214 8.99585 46.7304 13.7915 54.8236 19.5768L54.8852 19.621L54.8383 19.6793C47.5514 28.6931 38.7768 39.5475 29.335 51.2275L29.2784 51.2973L29.2043 51.244L29.2014 51.242C19.5348 44.3044 10.3992 37.7481 2.43086 32.0293L2.36426 31.9814L2.4151 31.919C10.0178 22.5485 16.4127 14.6661 20.9102 9.12296C23.1553 6.36267 24.926 4.18566 26.1384 2.6951C26.7414 1.9564 27.2051 1.38829 27.521 1.00158C27.676 0.813106 27.7942 0.669476 27.8765 0.569678C27.956 0.473589 27.9972 0.427734 27.9972 0.427734Z" fill="#263238"/>
<path d="M28.7745 2.76575L5.0498 32.0896L28.458 48.8797L52.1826 19.5558L28.7745 2.76575Z" fill="#263238"/>
<path d="M28.4538 49.2247L22.1899 28.5467L36.4257 28.7318L35.0406 20.9381L52.1775 19.9014L28.4538 49.2247Z" fill="#455A64"/>
<path d="M26.2687 23.0641C27.9556 22.8474 29.1365 21.3841 28.9063 19.7958C28.6761 18.2075 27.122 17.0957 25.4352 17.3124C23.7483 17.5291 22.5675 18.9924 22.7976 20.5807C23.0278 22.169 24.5819 23.2809 26.2687 23.0641Z" fill="#455A64"/>
<path d="M33.6551 0.0740617L31.7294 44.1565L90.2904 46.4245L92.2162 2.3421L33.6551 0.0740617Z" fill="white"/>
<path d="M92.2119 2.34964C92.2119 2.34964 92.1159 2.34896 91.9315 2.34323C91.7449 2.33716 91.4721 2.32806 91.1133 2.31592C90.3911 2.28996 89.3254 2.25186 87.9382 2.2023C85.1624 2.09946 81.1033 1.94943 75.9566 1.75894C65.6716 1.3702 51.042 0.816929 33.6498 0.159477L33.7365 0.0842887C33.166 13.2033 32.5125 28.2445 31.8207 44.1602L31.8204 44.1649L31.7312 44.0736C53.4106 44.9188 73.5589 45.7044 90.2887 46.3564L90.2081 46.4262C90.805 33.1423 91.2999 22.1315 91.6458 14.4387C91.8227 10.5894 91.9612 7.57048 92.0558 5.51114C92.1045 4.48248 92.1421 3.69421 92.1671 3.15982C92.194 2.62779 92.2119 2.34964 92.2119 2.34964C92.2119 2.34964 92.2058 2.61767 92.1857 3.14566C92.1646 3.67701 92.1331 4.46123 92.0923 5.48382C92.0071 7.53979 91.8821 10.5536 91.7227 14.3969C91.3958 22.1015 90.9278 33.1288 90.3631 46.4333L90.3599 46.5061L90.2822 46.5031C73.5518 45.8595 53.4035 45.084 31.7233 44.2499L31.6302 44.2462L31.6342 44.1585L31.6345 44.1538C32.3335 28.2384 32.9938 13.1976 33.57 0.0785577L33.5735 0L33.657 0.00337484C51.0695 0.693868 65.7167 1.27479 76.0143 1.68342C81.1523 1.89144 85.2043 2.0553 87.9755 2.16757C89.3548 2.22522 90.4147 2.26939 91.1334 2.29906C91.4879 2.31491 91.7575 2.32671 91.9419 2.3348C92.1224 2.34289 92.2119 2.34964 92.2119 2.34964Z" fill="#263238"/>
<path d="M35.5528 2.92746L33.8695 41.4597L88.3163 43.5684L89.9996 5.03616L35.5528 2.92746Z" fill="#455A64"/>
<path d="M33.8685 41.465L53.9305 18.2512L65.0556 33.6919L73.3949 25.9909L88.3127 43.5739L33.8685 41.465Z" fill="#263238"/>
<path d="M70.7372 16.6788C71.2557 14.5017 69.8016 12.3411 67.4893 11.8529C65.1771 11.3647 62.8824 12.7339 62.3639 14.911C61.8455 17.0881 63.2996 19.2488 65.6118 19.7369C67.924 20.2251 70.2188 18.8559 70.7372 16.6788Z" fill="#263238"/>
<path d="M0.0134439 40.8086L6.32527 90.57C6.43735 91.4543 7.23264 92.1209 8.17832 92.1236L90.8014 92.3606C91.7782 92.3633 92.5932 91.6583 92.6731 90.7416L96.9936 41.0109C97.0828 39.9863 96.2252 39.1077 95.1334 39.1046L1.8776 38.8369C0.753951 38.8336 -0.119761 39.7577 0.0134439 40.8086Z" fill="#1E79F1"/>
<path d="M48.1927 77L48.1927 53" stroke="white" stroke-width="4" stroke-linecap="round"/>
<path d="M35 65.2058H63" stroke="white" stroke-width="4" stroke-linecap="round"/>
</svg>
