<svg width="698" height="348" viewBox="0 0 698 348" fill="none" xmlns="http://www.w3.org/2000/svg">
<path d="M497.689 316.265V347.709H539.495H585.605V316.265H497.689Z" fill="#F5F5F5"/>
<path d="M494 307.474V316.265H588.678V307.474H539.495H494Z" fill="#E0E0E0"/>
<path d="M541.339 347.709H585.605V316.265H588.678V307.474H539.495V315.451L541.339 347.709Z" fill="#E0E0E0"/>
<path d="M527.814 321.336H509.985V326.069H527.814V321.336Z" fill="#E0E0E0"/>
<path d="M530.583 331.987H507.69V341.982H530.583V331.987Z" fill="white"/>
<path d="M93.517 96V78.5455H100.506C101.79 78.5455 102.861 78.7358 103.719 79.1165C104.577 79.4972 105.222 80.0256 105.653 80.7017C106.085 81.3722 106.301 82.1449 106.301 83.0199C106.301 83.7017 106.165 84.3011 105.892 84.8182C105.619 85.3295 105.244 85.75 104.767 86.0795C104.295 86.4034 103.756 86.6335 103.148 86.7699V86.9403C103.813 86.9687 104.435 87.1562 105.014 87.5028C105.599 87.8494 106.074 88.3352 106.438 88.9602C106.801 89.5795 106.983 90.3182 106.983 91.1761C106.983 92.1023 106.753 92.929 106.293 93.6562C105.838 94.3778 105.165 94.9489 104.273 95.3693C103.381 95.7898 102.281 96 100.974 96H93.517ZM97.2074 92.983H100.216C101.244 92.983 101.994 92.7869 102.466 92.3949C102.938 91.9972 103.173 91.4687 103.173 90.8097C103.173 90.3267 103.057 89.9006 102.824 89.5312C102.591 89.1619 102.259 88.8722 101.827 88.6619C101.401 88.4517 100.892 88.3466 100.301 88.3466H97.2074V92.983ZM97.2074 85.8494H99.9432C100.449 85.8494 100.898 85.7614 101.29 85.5852C101.688 85.4034 102 85.1477 102.227 84.8182C102.46 84.4886 102.577 84.0938 102.577 83.6335C102.577 83.0028 102.352 82.4943 101.903 82.108C101.46 81.7216 100.83 81.5284 100.011 81.5284H97.2074V85.8494ZM115.231 96.2557C113.89 96.2557 112.737 95.9716 111.771 95.4034C110.81 94.8295 110.072 94.0341 109.555 93.017C109.043 92 108.788 90.8295 108.788 89.5057C108.788 88.1648 109.046 86.9886 109.563 85.9773C110.086 84.9602 110.827 84.1676 111.788 83.5994C112.748 83.0256 113.89 82.7386 115.214 82.7386C116.356 82.7386 117.356 82.946 118.214 83.3608C119.072 83.7756 119.751 84.358 120.251 85.108C120.751 85.858 121.026 86.7386 121.077 87.75H117.651C117.555 87.0966 117.299 86.571 116.884 86.1733C116.475 85.7699 115.938 85.5682 115.273 85.5682C114.711 85.5682 114.219 85.7216 113.799 86.0284C113.384 86.3295 113.06 86.7699 112.827 87.3494C112.594 87.929 112.478 88.6307 112.478 89.4545C112.478 90.2898 112.592 91 112.819 91.5852C113.052 92.1705 113.379 92.6165 113.799 92.9233C114.219 93.2301 114.711 93.3835 115.273 93.3835C115.688 93.3835 116.06 93.2983 116.39 93.1278C116.725 92.9574 117.001 92.7102 117.217 92.3864C117.438 92.0568 117.583 91.6619 117.651 91.2017H121.077C121.021 92.2017 120.748 93.0824 120.259 93.8438C119.776 94.5994 119.109 95.1903 118.256 95.6165C117.404 96.0426 116.396 96.2557 115.231 96.2557ZM129.368 96.2557C128.021 96.2557 126.862 95.983 125.891 95.4375C124.925 94.8864 124.18 94.108 123.658 93.1023C123.135 92.0909 122.874 90.8949 122.874 89.5142C122.874 88.1676 123.135 86.9858 123.658 85.9688C124.18 84.9517 124.916 84.1591 125.865 83.5909C126.82 83.0227 127.939 82.7386 129.223 82.7386C130.087 82.7386 130.891 82.8778 131.635 83.1562C132.385 83.429 133.038 83.8409 133.595 84.392C134.158 84.9432 134.595 85.6364 134.908 86.4716C135.22 87.3011 135.376 88.2727 135.376 89.3864V90.3835H124.322V88.1335H131.959C131.959 87.6108 131.845 87.1477 131.618 86.7443C131.391 86.3409 131.075 86.0256 130.672 85.7983C130.274 85.5653 129.811 85.4489 129.283 85.4489C128.732 85.4489 128.243 85.5767 127.817 85.8324C127.396 86.0824 127.067 86.4205 126.828 86.8466C126.589 87.267 126.467 87.7358 126.462 88.2528V90.392C126.462 91.0398 126.581 91.5994 126.82 92.071C127.064 92.5426 127.408 92.9062 127.851 93.1619C128.294 93.4176 128.82 93.5455 129.428 93.5455C129.831 93.5455 130.2 93.4886 130.536 93.375C130.871 93.2614 131.158 93.0909 131.396 92.8636C131.635 92.6364 131.817 92.358 131.942 92.0284L135.3 92.25C135.129 93.0568 134.78 93.7614 134.251 94.3636C133.729 94.9602 133.053 95.4261 132.223 95.7614C131.399 96.0909 130.447 96.2557 129.368 96.2557ZM422.16 96V82.9091H427.742C429.356 82.9091 430.631 83.2159 431.569 83.8295C432.506 84.4432 432.975 85.3153 432.975 86.446C432.975 87.1562 432.711 87.7472 432.183 88.2188C431.654 88.6903 430.921 89.0085 429.984 89.1733C430.768 89.2301 431.435 89.4091 431.987 89.7102C432.543 90.0057 432.967 90.3892 433.256 90.8608C433.552 91.3324 433.7 91.8551 433.7 92.429C433.7 93.1733 433.501 93.8125 433.103 94.3466C432.711 94.8807 432.134 95.2898 431.373 95.5739C430.617 95.858 429.694 96 428.603 96H422.16ZM425.543 93.2812H428.603C429.109 93.2812 429.504 93.1619 429.788 92.9233C430.077 92.679 430.222 92.3466 430.222 91.9261C430.222 91.4602 430.077 91.0937 429.788 90.8267C429.504 90.5597 429.109 90.4261 428.603 90.4261H425.543V93.2812ZM425.543 88.2955H427.819C428.183 88.2955 428.492 88.2443 428.748 88.142C429.009 88.0341 429.208 87.8807 429.344 87.6818C429.487 87.483 429.558 87.2472 429.558 86.9744C429.558 86.571 429.396 86.2557 429.072 86.0284C428.748 85.8011 428.305 85.6875 427.742 85.6875H425.543V88.2955ZM447.457 96.2557C446.134 96.2557 444.989 95.9744 444.023 95.4119C443.063 94.8437 442.321 94.054 441.798 93.0426C441.276 92.0256 441.014 90.8466 441.014 89.5057C441.014 88.1534 441.276 86.9716 441.798 85.9602C442.321 84.9432 443.063 84.1534 444.023 83.5909C444.989 83.0227 446.134 82.7386 447.457 82.7386C448.781 82.7386 449.923 83.0227 450.884 83.5909C451.849 84.1534 452.594 84.9432 453.116 85.9602C453.639 86.9716 453.901 88.1534 453.901 89.5057C453.901 90.8466 453.639 92.0256 453.116 93.0426C452.594 94.054 451.849 94.8437 450.884 95.4119C449.923 95.9744 448.781 96.2557 447.457 96.2557ZM447.474 93.4432C448.077 93.4432 448.58 93.2727 448.983 92.9318C449.386 92.5852 449.69 92.1136 449.895 91.517C450.105 90.9205 450.21 90.2415 450.21 89.4801C450.21 88.7188 450.105 88.0398 449.895 87.4432C449.69 86.8466 449.386 86.375 448.983 86.0284C448.58 85.6818 448.077 85.5085 447.474 85.5085C446.866 85.5085 446.355 85.6818 445.94 86.0284C445.531 86.375 445.222 86.8466 445.011 87.4432C444.807 88.0398 444.705 88.7188 444.705 89.4801C444.705 90.2415 444.807 90.9205 445.011 91.517C445.222 92.1136 445.531 92.5852 445.94 92.9318C446.355 93.2727 446.866 93.4432 447.474 93.4432ZM455.239 99.8352V93.1193H456.244C456.534 92.9375 456.767 92.6477 456.943 92.25C457.125 91.8523 457.273 91.3835 457.386 90.8438C457.506 90.304 457.597 89.7216 457.659 89.0966C457.727 88.4659 457.787 87.8295 457.838 87.1875L458.179 82.9091H468.219V93.1193H470.247V99.8352H466.787V96H458.784V99.8352H455.239ZM459.858 93.1193H464.793V85.7045H461.264L461.128 87.1875C461.031 88.5852 460.892 89.7727 460.71 90.75C460.528 91.7216 460.244 92.5114 459.858 93.1193ZM481.474 88.0057V90.8608H474.638V88.0057H481.474ZM475.832 82.9091V96H472.363V82.9091H475.832ZM483.749 82.9091V96H480.306V82.9091H483.749ZM492.481 96.2557C491.157 96.2557 490.012 95.9744 489.046 95.4119C488.086 94.8437 487.344 94.054 486.822 93.0426C486.299 92.0256 486.038 90.8466 486.038 89.5057C486.038 88.1534 486.299 86.9716 486.822 85.9602C487.344 84.9432 488.086 84.1534 489.046 83.5909C490.012 83.0227 491.157 82.7386 492.481 82.7386C493.805 82.7386 494.947 83.0227 495.907 83.5909C496.873 84.1534 497.617 84.9432 498.14 85.9602C498.663 86.9716 498.924 88.1534 498.924 89.5057C498.924 90.8466 498.663 92.0256 498.14 93.0426C497.617 94.054 496.873 94.8437 495.907 95.4119C494.947 95.9744 493.805 96.2557 492.481 96.2557ZM492.498 93.4432C493.1 93.4432 493.603 93.2727 494.006 92.9318C494.41 92.5852 494.714 92.1136 494.918 91.517C495.129 90.9205 495.234 90.2415 495.234 89.4801C495.234 88.7188 495.129 88.0398 494.918 87.4432C494.714 86.8466 494.41 86.375 494.006 86.0284C493.603 85.6818 493.1 85.5085 492.498 85.5085C491.89 85.5085 491.379 85.6818 490.964 86.0284C490.555 86.375 490.245 86.8466 490.035 87.4432C489.83 88.0398 489.728 88.7188 489.728 89.4801C489.728 90.2415 489.83 90.9205 490.035 91.517C490.245 92.1136 490.555 92.5852 490.964 92.9318C491.379 93.2727 491.89 93.4432 492.498 93.4432ZM509.023 91.9858L512.569 82.9091H515.33L510.225 96H507.813L502.827 82.9091H505.58L509.023 91.9858ZM504.754 82.9091V96H501.285V82.9091H504.754ZM513.472 96V82.9091H516.898V96H513.472ZM533 91.9858L536.545 82.9091H539.307L534.202 96H531.79L526.804 82.9091H529.557L533 91.9858ZM528.73 82.9091V96H525.261V82.9091H528.73ZM537.449 96V82.9091H540.875V96H537.449ZM549.649 96.2557C548.303 96.2557 547.143 95.983 546.172 95.4375C545.206 94.8864 544.462 94.108 543.939 93.1023C543.416 92.0909 543.155 90.8949 543.155 89.5142C543.155 88.1676 543.416 86.9858 543.939 85.9688C544.462 84.9517 545.197 84.1591 546.146 83.5909C547.101 83.0227 548.22 82.7386 549.504 82.7386C550.368 82.7386 551.172 82.8778 551.916 83.1562C552.666 83.429 553.32 83.8409 553.876 84.392C554.439 84.9432 554.876 85.6364 555.189 86.4716C555.501 87.3011 555.658 88.2727 555.658 89.3864V90.3835H544.604V88.1335H552.24C552.24 87.6108 552.126 87.1477 551.899 86.7443C551.672 86.3409 551.357 86.0256 550.953 85.7983C550.555 85.5653 550.092 85.4489 549.564 85.4489C549.013 85.4489 548.524 85.5767 548.098 85.8324C547.678 86.0824 547.348 86.4205 547.109 86.8466C546.871 87.267 546.749 87.7358 546.743 88.2528V90.392C546.743 91.0398 546.862 91.5994 547.101 92.071C547.345 92.5426 547.689 92.9062 548.132 93.1619C548.575 93.4176 549.101 93.5455 549.709 93.5455C550.112 93.5455 550.482 93.4886 550.817 93.375C551.152 93.2614 551.439 93.0909 551.678 92.8636C551.916 92.6364 552.098 92.358 552.223 92.0284L555.581 92.25C555.411 93.0568 555.061 93.7614 554.533 94.3636C554.01 94.9602 553.334 95.4261 552.504 95.7614C551.68 96.0909 550.729 96.2557 549.649 96.2557ZM563.942 96.2557C562.601 96.2557 561.447 95.9716 560.482 95.4034C559.521 94.8295 558.783 94.0341 558.266 93.017C557.754 92 557.499 90.8295 557.499 89.5057C557.499 88.1648 557.757 86.9886 558.274 85.9773C558.797 84.9602 559.538 84.1676 560.499 83.5994C561.459 83.0256 562.601 82.7386 563.925 82.7386C565.067 82.7386 566.067 82.946 566.925 83.3608C567.783 83.7756 568.462 84.358 568.962 85.108C569.462 85.858 569.737 86.7386 569.788 87.75H566.362C566.266 87.0966 566.01 86.571 565.595 86.1733C565.186 85.7699 564.649 85.5682 563.984 85.5682C563.422 85.5682 562.93 85.7216 562.51 86.0284C562.095 86.3295 561.771 86.7699 561.538 87.3494C561.305 87.929 561.189 88.6307 561.189 89.4545C561.189 90.2898 561.303 91 561.53 91.5852C561.763 92.1705 562.089 92.6165 562.51 92.9233C562.93 93.2301 563.422 93.3835 563.984 93.3835C564.399 93.3835 564.771 93.2983 565.101 93.1278C565.436 92.9574 565.712 92.7102 565.928 92.3864C566.149 92.0568 566.294 91.6619 566.362 91.2017H569.788C569.732 92.2017 569.459 93.0824 568.97 93.8438C568.487 94.5994 567.82 95.1903 566.967 95.6165C566.115 96.0426 565.107 96.2557 563.942 96.2557ZM571.22 85.7642V82.9091H583.084V85.7642H578.865V96H575.405V85.7642H571.22ZM590.782 96.2557C589.435 96.2557 588.276 95.983 587.305 95.4375C586.339 94.8864 585.594 94.108 585.072 93.1023C584.549 92.0909 584.288 90.8949 584.288 89.5142C584.288 88.1676 584.549 86.9858 585.072 85.9688C585.594 84.9517 586.33 84.1591 587.279 83.5909C588.234 83.0227 589.353 82.7386 590.637 82.7386C591.501 82.7386 592.305 82.8778 593.049 83.1562C593.799 83.429 594.452 83.8409 595.009 84.392C595.572 84.9432 596.009 85.6364 596.322 86.4716C596.634 87.3011 596.79 88.2727 596.79 89.3864V90.3835H585.737V88.1335H593.373C593.373 87.6108 593.259 87.1477 593.032 86.7443C592.805 86.3409 592.489 86.0256 592.086 85.7983C591.688 85.5653 591.225 85.4489 590.697 85.4489C590.146 85.4489 589.657 85.5767 589.231 85.8324C588.81 86.0824 588.481 86.4205 588.242 86.8466C588.004 87.267 587.881 87.7358 587.876 88.2528V90.392C587.876 91.0398 587.995 91.5994 588.234 92.071C588.478 92.5426 588.822 92.9062 589.265 93.1619C589.708 93.4176 590.234 93.5455 590.842 93.5455C591.245 93.5455 591.614 93.4886 591.95 93.375C592.285 93.2614 592.572 93.0909 592.81 92.8636C593.049 92.6364 593.231 92.358 593.356 92.0284L596.714 92.25C596.543 93.0568 596.194 93.7614 595.665 94.3636C595.143 94.9602 594.467 95.4261 593.637 95.7614C592.813 96.0909 591.862 96.2557 590.782 96.2557ZM603.498 78.5455L603.165 90.767H600.046L599.705 78.5455H603.498ZM601.606 96.2216C601.043 96.2216 600.56 96.0227 600.157 95.625C599.754 95.2216 599.555 94.7386 599.56 94.1761C599.555 93.6193 599.754 93.142 600.157 92.7443C600.56 92.3466 601.043 92.1477 601.606 92.1477C602.146 92.1477 602.62 92.3466 603.029 92.7443C603.438 93.142 603.646 93.6193 603.651 94.1761C603.646 94.5511 603.546 94.8949 603.353 95.2074C603.165 95.5142 602.918 95.7614 602.612 95.9489C602.305 96.1307 601.969 96.2216 601.606 96.2216Z" fill="black"/>
<path d="M195.202 84.8636V89.5455H186.429V84.8636H195.202ZM188.656 78.5455V96H182.747V78.5455H188.656ZM198.884 78.5455V96H193.02V78.5455H198.884ZM206.736 96.2727C205.622 96.2727 204.637 96.0909 203.781 95.7273C202.933 95.3561 202.266 94.7955 201.781 94.0455C201.296 93.2955 201.054 92.3409 201.054 91.1818C201.054 90.2273 201.217 89.4129 201.543 88.7386C201.868 88.0568 202.323 87.5 202.906 87.0682C203.49 86.6364 204.168 86.3068 204.94 86.0795C205.721 85.8523 206.562 85.7045 207.463 85.6364C208.44 85.5606 209.224 85.4697 209.815 85.3636C210.414 85.25 210.846 85.0947 211.111 84.8977C211.376 84.6932 211.509 84.4242 211.509 84.0909V84.0455C211.509 83.5909 211.334 83.2424 210.986 83C210.637 82.7576 210.19 82.6364 209.645 82.6364C209.046 82.6364 208.558 82.7689 208.179 83.0341C207.808 83.2917 207.584 83.6894 207.509 84.2273H201.736C201.812 83.1667 202.149 82.1894 202.747 81.2955C203.353 80.3939 204.236 79.6742 205.395 79.1364C206.554 78.5909 208.001 78.3182 209.736 78.3182C210.986 78.3182 212.107 78.4659 213.099 78.7614C214.092 79.0492 214.937 79.4545 215.634 79.9773C216.33 80.4924 216.861 81.0985 217.224 81.7955C217.596 82.4848 217.781 83.2348 217.781 84.0455V96H211.918V93.5455H211.781C211.433 94.197 211.009 94.7235 210.509 95.125C210.016 95.5265 209.452 95.8182 208.815 96C208.187 96.1818 207.493 96.2727 206.736 96.2727ZM208.781 92.3182C209.259 92.3182 209.705 92.2197 210.122 92.0227C210.546 91.8258 210.891 91.5417 211.156 91.1705C211.421 90.7992 211.554 90.3485 211.554 89.8182V88.3636C211.387 88.4318 211.209 88.4962 211.02 88.5568C210.838 88.6174 210.641 88.6742 210.429 88.7273C210.224 88.7803 210.005 88.8295 209.77 88.875C209.543 88.9205 209.304 88.9621 209.054 89C208.569 89.0758 208.171 89.2008 207.861 89.375C207.558 89.5417 207.33 89.75 207.179 90C207.035 90.2424 206.963 90.5152 206.963 90.8182C206.963 91.303 207.134 91.6742 207.474 91.9318C207.815 92.1894 208.251 92.3182 208.781 92.3182ZM226.188 78.5455L228.733 83.9545L231.415 78.5455H237.642L232.96 87.2727L237.869 96H231.688L228.733 90.4545L225.869 96H219.597L224.551 87.2727L219.915 78.5455H226.188ZM247.688 96.3182C245.794 96.3182 244.172 95.9432 242.824 95.1932C241.475 94.4356 240.441 93.3826 239.722 92.0341C239.002 90.678 238.642 89.1061 238.642 87.3182C238.642 85.5303 239.002 83.9621 239.722 82.6136C240.441 81.2576 241.475 80.2045 242.824 79.4545C244.172 78.697 245.794 78.3182 247.688 78.3182C249.581 78.3182 251.203 78.697 252.551 79.4545C253.9 80.2045 254.934 81.2576 255.653 82.6136C256.373 83.9621 256.733 85.5303 256.733 87.3182C256.733 89.1061 256.373 90.678 255.653 92.0341C254.934 93.3826 253.9 94.4356 252.551 95.1932C251.203 95.9432 249.581 96.3182 247.688 96.3182ZM247.733 91.6818C248.263 91.6818 248.722 91.5038 249.108 91.1477C249.494 90.7917 249.794 90.2841 250.006 89.625C250.218 88.9659 250.324 88.1818 250.324 87.2727C250.324 86.3561 250.218 85.572 250.006 84.9205C249.794 84.2614 249.494 83.7538 249.108 83.3977C248.722 83.0417 248.263 82.8636 247.733 82.8636C247.172 82.8636 246.691 83.0417 246.29 83.3977C245.888 83.7538 245.581 84.2614 245.369 84.9205C245.157 85.572 245.051 86.3561 245.051 87.2727C245.051 88.1818 245.157 88.9659 245.369 89.625C245.581 90.2841 245.888 90.7917 246.29 91.1477C246.691 91.5038 247.172 91.6818 247.733 91.6818ZM258.233 101.182V91.2727H259.506C259.907 91.1136 260.222 90.7386 260.449 90.1477C260.684 89.5492 260.862 88.8485 260.983 88.0455C261.112 87.2424 261.203 86.4318 261.256 85.6136C261.316 84.7879 261.369 84.0682 261.415 83.4545L261.778 78.5455H276.688V91.2727H279.415V101.182H273.506V96H264.324V101.182H258.233ZM265.506 91.2727H270.869V83.0909H266.96V83.4545C266.869 85.3409 266.718 86.9129 266.506 88.1705C266.294 89.4205 265.96 90.4545 265.506 91.2727ZM281.747 96V78.5455H288.02V84.7727H289.111L292.838 78.5455H300.02L294.429 87.3636L300.065 96H292.793L289.429 90.5909H288.02V96H281.747ZM307.438 88L312.301 78.5455H318.21V96H312.301V86.5L307.438 96H301.528V78.5455H307.438V88Z" fill="#620C08"/>
<path d="M99.6196 324.021L99.5291 316.018L84.8916 316.096L84.903 327.806L85.8106 327.861C89.8514 328.069 106.369 328.628 109.064 327.774C112.07 326.824 99.6196 324.021 99.6196 324.021Z" fill="#455A64"/>
<path d="M84.6946 327.464C84.6946 327.471 84.7813 327.48 84.946 327.49C85.1631 327.503 85.4012 327.517 85.6688 327.531C86.3917 327.56 87.2811 327.595 88.3297 327.636C90.5772 327.708 93.6837 327.765 97.1141 327.753C100.546 327.739 103.652 327.656 105.899 327.566C106.948 327.517 107.836 327.475 108.559 327.441C108.828 327.423 109.065 327.407 109.282 327.394C109.447 327.381 109.534 327.371 109.534 327.365C109.534 327.36 109.446 327.357 109.28 327.358C109.063 327.362 108.825 327.365 108.556 327.37C107.834 327.389 106.944 327.411 105.896 327.439C103.649 327.496 100.544 327.558 97.1141 327.571C93.6847 327.584 90.5801 327.547 88.3325 327.508C87.2831 327.489 86.3945 327.474 85.6707 327.461C85.4022 327.458 85.1641 327.456 84.947 327.454C84.7822 327.454 84.6946 327.457 84.6946 327.464Z" fill="#263238"/>
<path d="M104.417 327.783C104.471 327.79 104.51 327.138 104.908 326.48C105.295 325.813 105.841 325.479 105.81 325.432C105.799 325.387 105.173 325.672 104.756 326.385C104.331 327.093 104.373 327.794 104.417 327.783Z" fill="#263238"/>
<path d="M100.087 325.559C100.129 325.585 100.334 325.327 100.546 324.981C100.759 324.636 100.897 324.334 100.855 324.307C100.813 324.281 100.608 324.539 100.396 324.885C100.184 325.23 100.045 325.532 100.087 325.559Z" fill="#263238"/>
<path d="M98.8986 324.923C98.9319 324.96 99.1624 324.801 99.4129 324.568C99.6643 324.335 99.8405 324.115 99.8081 324.078C99.7748 324.041 99.5452 324.2 99.2938 324.433C99.0433 324.666 98.8662 324.885 98.8986 324.923Z" fill="#263238"/>
<path d="M98.1436 323.512C98.1436 323.562 98.4854 323.606 98.9073 323.608C99.3302 323.611 99.6721 323.573 99.673 323.522C99.673 323.472 99.3311 323.429 98.9092 323.426C98.4864 323.423 98.1436 323.461 98.1436 323.512Z" fill="#263238"/>
<path d="M97.8816 322.514C97.8654 322.559 98.2387 322.731 98.7349 322.765C99.2311 322.802 99.6244 322.688 99.6139 322.641C99.6054 322.589 99.2187 322.62 98.7473 322.584C98.2759 322.551 97.8968 322.465 97.8816 322.514Z" fill="#263238"/>
<path d="M100.578 324.249C100.577 324.269 100.938 324.312 101.519 324.238C101.808 324.201 102.15 324.129 102.519 324.007C102.701 323.94 102.893 323.888 103.091 323.762C103.183 323.698 103.287 323.608 103.322 323.462C103.36 323.317 103.284 323.155 103.178 323.077C102.277 322.604 101.38 323.127 101.047 323.604C100.864 323.848 100.781 324.085 100.743 324.248C100.706 324.413 100.71 324.507 100.72 324.508C100.754 324.521 100.782 324.129 101.145 323.684C101.324 323.466 101.596 323.254 101.946 323.146C102.278 323.043 102.751 323.014 103.068 323.219C103.218 323.331 103.16 323.511 102.995 323.614C102.84 323.717 102.64 323.78 102.467 323.848C102.112 323.975 101.78 324.059 101.5 324.11C100.936 324.217 100.578 324.219 100.578 324.249Z" fill="#263238"/>
<path d="M100.822 324.296C100.835 324.306 100.973 324.06 100.927 323.626C100.904 323.414 100.826 323.162 100.667 322.924C100.501 322.711 100.286 322.418 99.8817 322.436C99.6636 322.466 99.5589 322.721 99.5941 322.882C99.6122 323.051 99.6865 323.195 99.756 323.312C99.897 323.552 100.056 323.746 100.203 323.893C100.499 324.186 100.732 324.299 100.743 324.28C100.759 324.257 100.554 324.108 100.294 323.804C100.165 323.652 100.024 323.46 99.8979 323.227C99.7674 323.025 99.6779 322.659 99.9131 322.614C100.148 322.59 100.39 322.828 100.534 323.02C100.683 323.227 100.765 323.452 100.803 323.645C100.877 324.038 100.79 324.288 100.822 324.296Z" fill="#263238"/>
<path d="M84.9744 323.36C84.9782 323.394 85.3934 323.317 86.0553 323.394C86.7105 323.465 87.6238 323.737 88.419 324.38C89.2142 325.023 89.6828 325.87 89.9028 326.507C90.1294 327.149 90.1523 327.58 90.1856 327.576C90.1961 327.575 90.2008 327.468 90.1846 327.274C90.1685 327.08 90.1218 326.8 90.0218 326.466C89.8266 325.802 89.358 324.909 88.5285 324.237C87.699 323.567 86.7419 323.307 86.0667 323.267C85.7258 323.244 85.4496 323.263 85.262 323.292C85.0744 323.319 84.9725 323.349 84.9744 323.36Z" fill="#263238"/>
<path d="M86.464 317.113C86.4154 317.113 86.364 318.492 86.3507 320.194C86.3374 321.896 86.3659 323.275 86.4155 323.275C86.464 323.275 86.5154 321.897 86.5288 320.195C86.5412 318.493 86.5126 317.114 86.464 317.113Z" fill="#263238"/>
<path d="M92.0447 326.191C92.039 326.238 92.9932 326.395 94.1827 326.398C95.3722 326.406 96.3283 326.259 96.3226 326.213C96.3179 326.16 95.3627 326.224 94.1837 326.216C93.0047 326.212 92.0504 326.138 92.0447 326.191Z" fill="#263238"/>
<path d="M89.1755 326.2C89.1402 326.237 89.2545 326.406 89.3536 326.631C89.4555 326.854 89.5059 327.054 89.5574 327.05C89.605 327.049 89.6317 326.813 89.5155 326.555C89.4002 326.296 89.2069 326.163 89.1755 326.2Z" fill="#263238"/>
<path d="M88.0885 324.826C88.0542 324.861 88.1495 325.017 88.3009 325.174C88.4533 325.331 88.6047 325.428 88.639 325.393C88.6733 325.358 88.579 325.202 88.4266 325.046C88.2742 324.89 88.1228 324.791 88.0885 324.826Z" fill="#263238"/>
<path d="M86.5383 324.204C86.5488 324.255 86.7431 324.252 86.9583 324.329C87.1754 324.4 87.3288 324.522 87.3678 324.488C87.4069 324.46 87.2831 324.247 87.0145 324.157C86.7478 324.064 86.5231 324.158 86.5383 324.204Z" fill="#263238"/>
<path d="M85.4356 323.912C85.4184 323.959 85.5022 324.037 85.6241 324.084C85.746 324.132 85.8584 324.132 85.8765 324.085C85.8946 324.038 85.8098 323.961 85.6879 323.913C85.566 323.866 85.4537 323.865 85.4356 323.912Z" fill="#263238"/>
<path d="M14.388 312.476L18.5231 305.684L6.15214 297.669L0 307.54L0.736163 308.087C4.03031 310.493 17.6498 320.082 20.3687 320.851C23.4019 321.711 14.388 312.476 14.388 312.476Z" fill="#455A64"/>
<path d="M0.00576574 307.136C0.00195637 307.141 0.0705252 307.197 0.203853 307.298C0.380036 307.429 0.573359 307.571 0.791445 307.732C1.38571 308.155 2.11616 308.675 2.97803 309.289C4.83319 310.59 7.41975 312.354 10.3158 314.237C13.2138 316.119 15.8737 317.765 17.8136 318.93C18.7231 319.467 19.4935 319.922 20.1202 320.292C20.3554 320.426 20.563 320.544 20.7535 320.651C20.8992 320.731 20.9773 320.771 20.9802 320.766C20.983 320.76 20.9116 320.711 20.7716 320.62C20.5859 320.503 20.384 320.375 20.1554 320.231C19.5364 319.847 18.7755 319.375 17.8784 318.819C15.9556 317.627 13.3081 315.965 10.4111 314.083C7.51594 312.202 4.91985 310.457 3.04755 309.183C2.1733 308.588 1.43237 308.084 0.830491 307.674C0.605739 307.523 0.406698 307.39 0.2248 307.268C0.0838537 307.177 0.00862277 307.131 0.00576574 307.136Z" fill="#263238"/>
<path d="M16.4499 318.293C16.4918 318.328 16.8671 317.801 17.5489 317.466C18.2251 317.119 18.8613 317.138 18.8603 317.082C18.8746 317.038 18.1975 316.933 17.4708 317.303C16.7414 317.664 16.4071 318.278 16.4499 318.293Z" fill="#263238"/>
<path d="M13.9738 314.03C13.9947 314.075 14.3033 313.97 14.6642 313.797C15.0252 313.623 15.2994 313.444 15.2785 313.4C15.2575 313.354 14.949 313.458 14.588 313.633C14.228 313.806 13.9528 313.984 13.9738 314.03Z" fill="#263238"/>
<path d="M13.3073 312.838C13.3159 312.888 13.593 312.882 13.9273 312.823C14.2615 312.765 14.5263 312.678 14.5177 312.628C14.5091 312.578 14.232 312.585 13.8977 312.644C13.5644 312.701 13.2997 312.789 13.3073 312.838Z" fill="#263238"/>
<path d="M13.4137 311.231C13.387 311.273 13.6527 311.498 14.007 311.734C14.3613 311.97 14.6698 312.127 14.6965 312.085C14.7232 312.043 14.4575 311.817 14.1032 311.582C13.7489 311.346 13.4404 311.189 13.4137 311.231Z" fill="#263238"/>
<path d="M13.7176 310.247C13.6805 310.276 13.9052 310.625 14.3052 310.929C14.7042 311.234 15.0947 311.354 15.1118 311.309C15.1318 311.261 14.7899 311.073 14.4119 310.782C14.0309 310.496 13.7576 310.214 13.7176 310.247Z" fill="#263238"/>
<path d="M15.0765 313.197C15.0651 313.213 15.346 313.449 15.8745 313.707C16.1374 313.836 16.464 313.963 16.8383 314.065C17.0278 314.109 17.2164 314.171 17.4488 314.174C17.5611 314.171 17.6945 314.153 17.8021 314.049C17.9106 313.949 17.9316 313.77 17.883 313.645C17.3726 312.75 16.3412 312.693 15.8107 312.913C15.5288 313.017 15.3336 313.171 15.2155 313.287C15.0974 313.406 15.0508 313.487 15.0593 313.494C15.0812 313.522 15.3108 313.208 15.8507 313.035C16.1164 312.95 16.4564 312.922 16.8088 313.023C17.1421 313.12 17.5554 313.356 17.7154 313.704C17.7821 313.881 17.6392 314.001 17.4459 313.997C17.2621 313.998 17.0602 313.941 16.8783 313.902C16.5117 313.813 16.1898 313.7 15.925 313.589C15.3955 313.367 15.0917 313.171 15.0765 313.197Z" fill="#263238"/>
<path d="M15.2573 313.37C15.2631 313.387 15.5088 313.255 15.6983 312.865C15.7897 312.673 15.8573 312.418 15.8488 312.13C15.8202 311.858 15.7935 311.492 15.444 311.286C15.245 311.19 15.0221 311.347 14.9669 311.502C14.8936 311.654 14.8802 311.817 14.8774 311.954C14.8697 312.234 14.9012 312.485 14.9478 312.689C15.0431 313.1 15.1802 313.324 15.1993 313.314C15.225 313.303 15.1307 313.065 15.0716 312.665C15.0421 312.466 15.025 312.225 15.0412 311.961C15.0383 311.718 15.1545 311.361 15.3773 311.453C15.5888 311.562 15.6659 311.896 15.6868 312.137C15.703 312.395 15.6545 312.629 15.585 312.812C15.4392 313.184 15.2345 313.347 15.2573 313.37Z" fill="#263238"/>
<path d="M2.40082 303.834C2.38558 303.864 2.77604 304.029 3.29316 304.459C3.80743 304.882 4.43407 305.613 4.76644 306.594C5.0969 307.575 5.04738 308.547 4.89691 309.205C4.75025 309.87 4.54264 310.247 4.57311 310.261C4.58264 310.266 4.64359 310.179 4.7312 310.006C4.81977 309.833 4.92739 309.573 5.01881 309.235C5.20452 308.568 5.2788 307.556 4.93405 306.534C4.5874 305.512 3.91885 304.765 3.3703 304.358C3.09508 304.151 2.85223 304.014 2.67891 303.935C2.50558 303.856 2.40558 303.824 2.40082 303.834Z" fill="#263238"/>
<path d="M6.94163 299.395C6.90068 299.367 6.13214 300.501 5.22551 301.927C4.31888 303.353 3.617 304.532 3.65795 304.559C3.69891 304.586 4.46745 303.453 5.37408 302.027C6.28071 300.6 6.98258 299.422 6.94163 299.395Z" fill="#263238"/>
<path d="M6.86635 310.121C6.83683 310.157 7.5587 310.816 8.55771 311.476C9.55576 312.139 10.4376 312.544 10.4576 312.501C10.4814 312.454 9.64243 311.98 8.6539 311.324C7.66441 310.669 6.89873 310.08 6.86635 310.121Z" fill="#263238"/>
<path d="M4.44554 308.546C4.39602 308.557 4.40364 308.764 4.3684 309.007C4.33697 309.251 4.27507 309.448 4.31888 309.472C4.35888 309.498 4.50649 309.313 4.54363 309.032C4.58268 308.75 4.49125 308.532 4.44554 308.546Z" fill="#263238"/>
<path d="M4.25202 306.789C4.20441 306.8 4.2025 306.983 4.24822 307.198C4.29393 307.414 4.37011 307.581 4.41773 307.57C4.46534 307.559 4.46725 307.376 4.42154 307.159C4.37583 306.944 4.29964 306.778 4.25202 306.789Z" fill="#263238"/>
<path d="M3.27407 305.409C3.25597 305.457 3.42168 305.563 3.56263 305.745C3.70834 305.925 3.7731 306.113 3.82357 306.105C3.87119 306.103 3.8788 305.855 3.70071 305.631C3.52358 305.407 3.2855 305.362 3.27407 305.409Z" fill="#263238"/>
<path d="M2.49892 304.554C2.45988 304.584 2.49036 304.695 2.5675 304.803C2.64464 304.91 2.73987 304.972 2.77892 304.943C2.81797 304.914 2.78748 304.803 2.71034 304.695C2.63321 304.587 2.53797 304.525 2.49892 304.554Z" fill="#263238"/>
<path d="M71.084 157.235C71.084 157.235 83.5044 241.755 81.6969 245.839C79.8903 249.925 21.905 315.241 21.905 315.241L0.5354 300.738C0.5354 300.738 51.1838 235.42 50.8019 233.852C50.4191 232.283 31.6075 150.437 31.6075 150.437L71.084 157.235Z" fill="#E8505B"/>
<path d="M24.5581 149.279L23.8076 152.416C21.5963 161.657 22.9534 171.415 27.5951 179.656L61.2727 239.449C63.6584 243.685 65.3983 248.268 66.4335 253.041L81.6367 322.107H105.095C105.095 323.545 99.0264 265.213 95.9856 245.84C93.6914 231.23 74.6027 185.874 65.3554 164.457L71.0847 157.236L61.1318 155.535L24.5581 149.279Z" fill="#E8505B"/>
<path d="M66.0822 164.292C66.1136 164.277 66.2965 164.617 66.6012 165.243C66.9069 165.868 67.3279 166.783 67.8316 167.922C68.8402 170.197 70.1649 173.375 71.5144 176.929C72.8638 180.486 73.9828 183.745 74.7399 186.121C75.119 187.309 75.4123 188.275 75.5999 188.947C75.7885 189.619 75.877 189.996 75.8447 190.006C75.8123 190.017 75.6618 189.662 75.4171 189.009C75.1418 188.252 74.8047 187.327 74.4095 186.238C73.5676 183.895 72.3991 180.662 71.0525 177.113C69.7049 173.565 68.4345 170.373 67.5098 168.063C67.0841 166.986 66.7212 166.071 66.425 165.322C66.1746 164.672 66.0517 164.306 66.0822 164.292Z" fill="#263238"/>
<path d="M68.8515 264.54C68.8344 264.542 68.783 264.31 68.6992 263.867C68.6125 263.373 68.4992 262.729 68.3592 261.926C68.2878 261.499 68.2097 261.03 68.1249 260.522C68.0135 260.01 67.8935 259.459 67.7659 258.869C67.5059 257.683 67.2411 256.327 66.8202 254.858C66.624 254.118 66.4193 253.346 66.2059 252.542C65.9583 251.746 65.7012 250.919 65.4355 250.063C64.9346 248.34 64.2384 246.553 63.5727 244.651C62.1261 240.89 60.3671 236.822 58.3129 232.656C54.1636 224.336 49.7419 217.175 46.4772 212.046C44.8506 209.527 43.524 207.473 42.5688 205.995C42.1307 205.313 41.7793 204.766 41.5098 204.347C41.2717 203.966 41.1536 203.762 41.1679 203.752C41.1822 203.742 41.327 203.926 41.5917 204.288C41.8803 204.694 42.2583 205.224 42.7278 205.883C43.7078 207.273 45.0973 209.305 46.7696 211.848C50.1114 216.931 54.5912 224.079 58.7548 232.427C60.8166 236.607 62.5699 240.698 63.9994 244.484C64.6565 246.4 65.3403 248.199 65.8269 249.936C66.085 250.799 66.3335 251.632 66.5735 252.435C66.7773 253.245 66.9726 254.024 67.1592 254.769C67.5602 256.249 67.803 257.617 68.0373 258.812C68.1516 259.407 68.2582 259.963 68.3573 260.479C68.4268 260.991 68.4906 261.464 68.5487 261.895C68.6516 262.705 68.7344 263.356 68.7973 263.854C68.8496 264.302 68.8687 264.538 68.8515 264.54Z" fill="#263238"/>
<path d="M25.0399 311.745C25.0275 311.777 24.6799 311.659 24.0618 311.416C23.439 311.183 22.5666 310.772 21.5143 310.215C19.401 309.108 16.6573 307.262 13.7689 305.057C10.8795 302.851 8.28244 300.847 6.32061 299.516C4.36641 298.174 3.09122 297.449 3.13027 297.374C3.14646 297.342 3.47977 297.494 4.07213 297.798C4.6683 298.093 5.5016 298.58 6.51013 299.213C8.53291 300.475 11.1795 302.446 14.0632 304.649C16.9468 306.849 19.6305 308.723 21.6819 309.9C23.7247 311.088 25.0741 311.661 25.0399 311.745Z" fill="#263238"/>
<path d="M105.039 318.524C105.037 318.559 104.691 318.577 104.064 318.58C103.327 318.575 102.443 318.569 101.413 318.561C99.0482 318.54 96.0207 318.514 92.6722 318.486C89.3228 318.507 86.2944 318.527 83.9297 318.541C82.8993 318.546 82.0155 318.551 81.2784 318.555C80.6518 318.55 80.3051 318.531 80.3032 318.496C80.3023 318.461 80.6461 318.413 81.2708 318.358C81.8955 318.3 82.8003 318.241 83.9193 318.183C86.1573 318.067 89.2524 317.975 92.6722 317.978C96.0911 317.983 99.1863 318.082 101.423 318.203C102.542 318.263 103.447 318.326 104.072 318.383C104.697 318.44 105.041 318.489 105.039 318.524Z" fill="#263238"/>
<path d="M40.009 63.0037C37.9557 63.2086 35.8015 63.0583 33.9768 62.0712C32.1531 61.084 30.7341 59.1262 30.7989 57.0143C30.837 55.7774 31.3608 54.5581 31.1608 53.3387C30.9608 52.1135 30.0761 51.143 29.5066 50.0465C28.0838 47.3054 28.8837 43.5626 31.2951 41.6809C32.5426 40.7073 34.1368 40.1972 35.1825 39.0003C36.4206 37.5839 36.6187 35.5354 37.3748 33.7981C38.4643 31.2921 40.8461 29.4231 43.4917 28.9968C44.9516 28.7617 46.4811 28.9344 47.8801 28.4496C49.0772 28.035 50.0676 27.1766 51.1257 26.4694C54.3874 24.2853 58.5092 23.4942 62.3214 24.3204C63.9947 24.6823 65.6479 25.3729 66.8603 26.6079C68.2193 27.9931 69.9763 29.4943 70.4668 31.3916C71.0449 33.6303 70.3373 36.4397 69.7497 38.6764C69.163 40.9132 67.4088 42.9597 65.1632 43.2299" fill="#263238"/>
<path d="M39.5278 80.254L57.4119 80.5144C57.7176 78.4016 58.3242 70.1754 58.3242 70.1754C58.3242 70.1754 65.8182 69.7111 66.6048 62.157C67.3915 54.602 67.7076 37.1108 67.7076 37.1108C59.5051 32.5231 49.5217 32.8421 41.6154 37.9438L40.4421 38.7008L39.5278 80.254Z" fill="#FFBE9D"/>
<path d="M58.9194 57.2309C58.9204 57.1489 59.5613 57.0787 60.5965 57.0328C60.8651 57.0289 61.0794 56.987 61.1127 56.8426C61.1755 56.6826 61.0994 56.3812 60.9936 56.0437C60.7956 55.3297 60.5946 54.6068 60.3841 53.8499C59.5499 50.7264 59.0004 48.1609 59.1547 48.117C59.3099 48.0741 60.1108 50.5694 60.9451 53.6919C61.1403 54.4537 61.326 55.1804 61.5108 55.8984C61.5793 56.2232 61.7308 56.6085 61.5517 57.0445C61.4574 57.2621 61.2336 57.4055 61.0536 57.4357C60.8727 57.4738 60.7222 57.4591 60.5946 57.4523C59.5585 57.3918 58.9185 57.3128 58.9194 57.2309Z" fill="#263238"/>
<path d="M58.3462 70.0671C58.3462 70.0671 53.6435 70.0056 48.9771 66.3359C48.9771 66.3359 50.7522 71.9985 58.1833 72.0278L58.3462 70.0671Z" fill="#EB996E"/>
<path d="M40.5317 46.6519C40.385 46.5895 35.4757 45.77 35.7538 51.7487C36.0319 57.7274 41.8345 55.4623 41.8364 55.2907C41.8383 55.119 40.5317 46.6519 40.5317 46.6519Z" fill="#FFBE9D"/>
<path d="M39.9508 53.2792C39.9242 53.2617 39.8528 53.3573 39.6842 53.446C39.5204 53.5328 39.2347 53.6011 38.9252 53.4987C38.2976 53.2968 37.7319 52.3194 37.6538 51.2434C37.6138 50.7001 37.7005 50.1762 37.869 49.7383C38.0271 49.2925 38.289 48.9735 38.5966 48.9013C38.9023 48.8135 39.1309 48.993 39.2099 49.1579C39.2956 49.3217 39.2642 49.4427 39.2956 49.4515C39.3128 49.4661 39.4166 49.3451 39.3575 49.1003C39.328 48.9832 39.2528 48.8457 39.1109 48.7374C38.9652 48.6272 38.7566 48.5784 38.5414 48.6126C38.0928 48.6662 37.7071 49.1101 37.5224 49.591C37.3129 50.0748 37.2024 50.664 37.2472 51.2746C37.3405 52.4774 37.9947 53.5748 38.8499 53.7845C39.2661 53.8743 39.6023 53.7309 39.7728 53.5806C39.947 53.4246 39.9708 53.2899 39.9508 53.2792Z" fill="#EB996E"/>
<path d="M52.2845 46.5055C52.2045 46.3992 52.3435 46.1154 52.7216 45.8178C53.0949 45.5213 53.7197 45.2443 54.4473 45.1926C55.1758 45.1418 55.832 45.3291 56.2405 45.5701C56.6548 45.811 56.83 46.0734 56.7653 46.1895C56.6186 46.4363 55.672 46.1066 54.5149 46.2061C53.3559 46.2695 52.4626 46.7299 52.2845 46.5055Z" fill="#263238"/>
<path d="M62.6366 46.5709C62.5852 46.2987 63.3852 45.9173 64.4337 45.9222C65.4832 45.9232 66.2803 46.3095 66.2279 46.5816C66.1765 46.8606 65.3775 46.9377 64.4308 46.9387C63.4852 46.9318 62.6861 46.8499 62.6366 46.5709Z" fill="#263238"/>
<path d="M38.6831 40.5337C38.9602 42.3715 39.2374 44.2093 39.5145 46.0471C39.645 46.9123 39.7983 47.8293 40.3688 48.4809C41.3106 49.5578 43.0505 49.4642 44.2705 48.7365C46.0514 47.6742 47.0313 45.6393 47.7818 43.6728C48.5322 41.7062 49.2008 39.6168 50.6502 38.1165C52.6635 40.3728 56.1843 41.0371 58.8509 39.6636C60.0403 39.051 61.0317 38.1009 62.1736 37.3985C63.3154 36.6962 64.7439 36.2514 65.9744 36.7742C66.6496 37.061 67.2562 37.6288 67.9857 37.5956C68.54 37.5702 69.0371 37.1752 69.2961 36.6728C69.5542 36.1695 69.6009 35.5764 69.5361 35.0116C69.2942 32.8967 67.6038 31.2218 65.7372 30.2844C63.0754 28.9461 60.0127 28.7646 57.0471 28.7568C54.232 28.749 51.3912 28.8788 48.6665 29.6065C45.9428 30.3342 43.321 31.6989 41.4468 33.8498C39.5726 36.0017 38.5269 38.9993 39.0545 41.8321" fill="#263238"/>
<path d="M61.9624 34.4897C62.3329 36.4085 63.3366 38.1926 64.7718 39.4841C65.4661 40.1094 66.3194 40.6391 67.2431 40.6186C68.7431 40.5854 69.9011 39.0217 69.9373 37.4854C69.9735 35.949 69.1421 34.517 68.1117 33.4001C67.1232 32.33 65.8337 31.4267 64.3956 31.3916C62.9576 31.3555 61.4434 32.4705 61.4253 33.9434" fill="#263238"/>
<path d="M53.3609 49.3344C53.3533 49.8407 53.7657 50.265 54.2819 50.2826C54.7971 50.3002 55.2218 49.9051 55.2294 49.3988C55.237 48.8925 54.8247 48.4672 54.3095 48.4497C53.7933 48.4321 53.3686 48.8282 53.3609 49.3344Z" fill="#263238"/>
<path d="M51.8229 48.2926C51.9409 48.4155 52.64 47.8634 53.6466 47.8449C54.6523 47.8117 55.4018 48.3268 55.5084 48.199C55.5608 48.1424 55.438 47.919 55.1123 47.6859C54.7913 47.4537 54.2466 47.2323 53.619 47.2479C52.9923 47.2645 52.4685 47.5123 52.1705 47.76C51.8648 48.0098 51.7648 48.238 51.8229 48.2926Z" fill="#263238"/>
<path d="M63.6705 49.3032C63.6629 49.8095 64.0753 50.2338 64.5914 50.2514C65.1066 50.2689 65.5314 49.8739 65.539 49.3676C65.5466 48.8613 65.1343 48.437 64.619 48.4185C64.1029 48.4009 63.6781 48.7969 63.6705 49.3032Z" fill="#263238"/>
<path d="M62.3345 48.4497C62.4526 48.5726 63.1516 48.0205 64.1582 48.0019C65.1639 47.9688 65.9134 48.4848 66.0201 48.356C66.0724 48.2994 65.9505 48.0761 65.6229 47.8429C65.302 47.6108 64.7573 47.3893 64.1297 47.405C63.5021 47.4215 62.9792 47.6693 62.6812 47.9171C62.3774 48.1668 62.2764 48.3951 62.3345 48.4497Z" fill="#263238"/>
<path d="M58.6777 60.2958C58.6872 60.3582 58.4273 60.4772 57.9768 60.449C57.5349 60.4246 56.9007 60.2109 56.4102 59.6861C55.9207 59.1594 55.7407 58.5009 55.7369 58.0483C55.7293 57.5869 55.8578 57.3255 55.9178 57.3382C56.054 57.3392 55.9493 58.457 56.7683 59.3359C57.5873 60.2129 58.6825 60.1563 58.6777 60.2958Z" fill="#263238"/>
<path d="M62.05 99.3693L76.9123 94.2783C76.9123 94.2783 87.2623 119.351 89.926 119.6C104.681 120.978 120.468 115.967 126.004 113.986C126.565 113.34 127.207 112.564 127.922 111.613C128.534 110.798 128.999 109.877 129.31 108.898C129.687 107.713 130.125 106.115 130.1 105.164C130.068 103.987 131.45 103.384 132.089 104.23C132.728 105.076 132.891 108.314 131.435 111.799C129.979 115.282 135.133 112.511 137.03 111.535C138.926 110.56 144.931 107.824 145.686 108.184C146.792 108.711 146.445 110.022 144.529 110.951C142.59 111.891 137.059 115.08 137.611 116.082C138.153 117.068 147.741 111.968 147.741 111.968C147.741 111.968 149.618 110.537 150.292 111.672C151.509 113.719 140.927 118.372 139.909 118.79C139.202 119.08 139.763 120.19 140.506 119.837C141.271 119.473 149.953 114.52 151.211 116.593C152.176 118.183 142.541 120.504 141.297 122.555C140.054 124.608 148.429 120.035 149.29 121.593C149.611 122.173 149.772 122.65 144.591 124.565C142.078 125.494 137.337 126.639 133.046 127.584L133.065 127.638C133.065 127.638 79.7474 152.078 70.1583 128.492C60.3911 104.466 62.05 99.3693 62.05 99.3693Z" fill="#EB996E"/>
<path d="M81.8748 102.535C75.9274 88.2636 68.1296 82.6731 64.0174 80.611C62.5794 79.8891 61.0128 79.4863 59.4129 79.3975L58.9186 76.9452L39.2013 75.1269L38.7185 78.2474L35.8252 78.0865C35.8252 78.0865 18.8269 79.8287 18.7964 99.9956C18.7821 109.428 23.7553 118.607 25.5104 123.102C26.6047 132.509 22.6648 149.562 22.7715 153.723L71.0838 157.234L73.1285 126.301L72.6761 123.399L88.5802 118.411L81.8748 102.535Z" fill="#EBEBEB"/>
<path d="M68.7122 91.7568C68.7455 91.7499 68.8665 92.2299 69.0569 93.1039C69.2493 93.9769 69.4998 95.247 69.7874 96.8195C70.3636 99.9654 71.0578 104.332 71.6435 109.18C72.2273 114.03 72.5911 118.438 72.7787 121.633C72.8739 123.23 72.932 124.524 72.953 125.418C72.9758 126.313 72.972 126.808 72.9377 126.81C72.9035 126.812 72.8425 126.321 72.7597 125.43C72.673 124.444 72.5616 123.177 72.4282 121.659C72.1511 118.475 71.733 114.081 71.1502 109.241C70.5655 104.403 69.9274 100.037 69.4407 96.8799C69.2093 95.3738 69.017 94.1184 68.8665 93.14C68.736 92.2552 68.6789 91.7626 68.7122 91.7568Z" fill="#263238"/>
<path d="M94.9941 139.674C94.9941 139.674 41.6944 164.168 32.1062 140.582C22.338 116.554 23.997 111.457 23.997 111.457L38.8593 106.366C38.8593 106.366 49.2093 131.439 51.873 131.688C66.6277 133.066 82.4146 128.055 87.9506 126.074C88.5125 125.428 89.1544 124.652 89.8686 123.702C90.481 122.886 91.119 121.712 91.7466 120.907C93.1552 119.1 94.2684 118.8 94.8837 118.087C96.356 116.382 97.7007 117.627 97.0607 118.546C96.4541 119.416 94.8389 120.402 93.3828 123.887C91.9266 127.37 97.1159 125.659 99.1682 125.106C101.438 124.495 105.699 122.798 105.699 122.798C105.798 123.821 104.669 125.881 102.752 126.809C100.813 127.75 99.5587 128.17 99.5587 128.17C99.5587 128.17 103.499 127.68 103.603 128.599C103.708 129.519 102.438 136.322 98.2454 138.343L94.9941 139.674Z" fill="#FFBE9D"/>
<path d="M35.3956 84.511L44.9695 114.139L24.0141 122.623C24.0141 122.623 13.0812 93.5272 26.9264 86.4053L35.3956 84.511Z" fill="#EBEBEB"/>
<path d="M46.363 112.985C46.3525 112.995 46.2458 112.908 46.0792 112.708C45.9125 112.509 45.6839 112.195 45.4516 111.755C44.9706 110.876 44.5354 109.509 43.9402 107.856C42.7669 104.535 41.1775 99.9371 39.4518 94.849C38.5966 92.3059 37.7824 89.8838 37.0367 87.6676C36.2977 85.463 35.7196 83.4223 34.6196 82.0976C33.5568 80.7515 32.1121 80.3252 31.196 80.3545C30.2493 80.3886 29.7989 80.7612 29.776 80.7037C29.7684 80.692 29.8713 80.6003 30.097 80.4715C30.3227 80.3437 30.6903 80.2033 31.1855 80.1574C32.1531 80.0628 33.7121 80.4559 34.8873 81.8655C36.0872 83.2448 36.71 85.3372 37.4681 87.5134C38.2252 89.7258 39.0518 92.144 39.9204 94.6822C41.646 99.7712 43.1831 104.388 44.2716 107.738C44.8268 109.411 45.2097 110.787 45.6239 111.665C46.0287 112.551 46.3982 112.956 46.363 112.985Z" fill="#263238"/>
<path d="M45.9182 113.538C45.9335 113.569 45.6506 113.75 45.1249 114.048C44.6002 114.348 43.8297 114.758 42.8679 115.247C40.9451 116.225 38.2471 117.494 35.2082 118.751C32.1674 120.006 29.3646 121.01 27.3171 121.673C26.2933 122.004 25.46 122.257 24.8791 122.414C24.2982 122.572 23.9734 122.644 23.9629 122.611C23.941 122.541 25.1905 122.082 27.2037 121.333C29.218 120.585 31.9912 119.531 35.0215 118.281C38.05 117.028 40.7613 115.816 42.7174 114.923C44.6754 114.03 45.8858 113.472 45.9182 113.538Z" fill="#263238"/>
<path d="M27.4534 121.531C27.3258 121.583 26.843 120.638 26.3744 119.421C25.9058 118.204 25.6297 117.176 25.7563 117.124C25.8839 117.072 26.3668 118.017 26.8353 119.235C27.3048 120.451 27.581 121.48 27.4534 121.531Z" fill="#263238"/>
<path d="M31.8757 119.789C31.7596 119.855 31.1796 118.998 30.7615 117.797C30.3396 116.597 30.2568 115.557 30.3872 115.533C30.5253 115.505 30.8196 116.466 31.2281 117.625C31.631 118.786 31.9995 119.721 31.8757 119.789Z" fill="#263238"/>
<path d="M36.5197 117.73C36.4064 117.8 35.7779 116.927 35.3303 115.684C34.8779 114.442 34.7979 113.361 34.9284 113.338C35.0674 113.311 35.3588 114.312 35.795 115.507C36.2254 116.703 36.6416 117.656 36.5197 117.73Z" fill="#263238"/>
<path d="M41.482 115.673C41.3515 115.715 40.9258 114.703 40.5316 113.413C40.1373 112.123 39.924 111.043 40.0544 111.001C40.1849 110.959 40.6106 111.97 41.0049 113.261C41.3992 114.552 41.6125 115.631 41.482 115.673Z" fill="#263238"/>
<path d="M88.9629 118.087C89.0048 118.22 85.3916 119.518 80.8946 120.985C76.3967 122.452 72.7168 123.533 72.6759 123.399C72.634 123.265 76.2462 121.968 80.7441 120.501C85.2421 119.035 88.9219 117.954 88.9629 118.087Z" fill="#263238"/>
<path d="M76.1978 121.531C76.0721 121.587 75.6531 120.87 75.2617 119.931C74.8712 118.992 74.656 118.187 74.7827 118.132C74.9084 118.077 75.3274 118.793 75.7188 119.732C76.1093 120.671 76.3236 121.476 76.1978 121.531Z" fill="#263238"/>
<path d="M80.2985 120.582C80.1738 120.634 79.7224 119.785 79.4186 118.645C79.1119 117.504 79.0786 116.539 79.2119 116.518C79.35 116.496 79.5986 117.402 79.8966 118.51C80.1919 119.62 80.4281 120.529 80.2985 120.582Z" fill="#263238"/>
<path d="M84.705 119.137C84.5707 119.166 84.2765 118.255 84.047 117.104C83.8174 115.953 83.7403 114.998 83.8746 114.97C84.0089 114.942 84.3031 115.852 84.5327 117.003C84.7622 118.154 84.8393 119.11 84.705 119.137Z" fill="#263238"/>
<path d="M41.1526 77.9791C41.0164 77.9694 40.9421 77.428 40.9879 76.7705C41.0336 76.1131 41.1812 75.5883 41.3174 75.598C41.4536 75.6078 41.5278 76.1492 41.4821 76.8066C41.4364 77.4641 41.2888 77.9889 41.1526 77.9791Z" fill="#263238"/>
<path d="M45.495 78.2357C45.3578 78.2416 45.2264 77.7129 45.2007 77.0554C45.175 76.3979 45.2645 75.8605 45.4016 75.8546C45.5388 75.8487 45.6702 76.3775 45.6959 77.0349C45.7216 77.6934 45.6321 78.2308 45.495 78.2357Z" fill="#263238"/>
<path d="M48.8523 78.8308C48.7152 78.8298 48.6085 78.2767 48.6142 77.5958C48.6199 76.9149 48.7352 76.3638 48.8714 76.3648C49.0085 76.3657 49.1152 76.9188 49.1095 77.5997C49.1047 78.2806 48.9885 78.8317 48.8523 78.8308Z" fill="#263238"/>
<path d="M53.3863 79.3409C53.2568 79.377 52.9854 78.743 52.9625 77.907C52.9359 77.07 53.1702 76.4213 53.3006 76.4496C53.4387 76.476 53.4321 77.1178 53.4578 77.8924C53.4787 78.6659 53.5225 79.3068 53.3863 79.3409Z" fill="#263238"/>
<path d="M57.1206 79.3419C56.9844 79.3585 56.7987 78.7244 56.7053 77.9265C56.612 77.1286 56.6473 76.4672 56.7825 76.4506C56.9187 76.434 57.1044 77.0671 57.1977 77.866C57.291 78.664 57.2568 79.3253 57.1206 79.3419Z" fill="#263238"/>
<path d="M325.383 34.3368C309.413 15.1543 286.694 3.1456 261.408 0.527804C209.209 -4.88 162.203 31.885 156.622 82.4778C153.197 113.527 166.176 142.66 188.763 161.801L104.417 257.372L117.2 267.284L201.424 170.88C213.136 177.886 226.595 182.532 241.17 184.042C244.615 184.399 248.051 184.576 251.469 184.576C273.127 184.576 293.979 177.47 311.073 164.101C330.864 148.622 343.252 126.6 345.954 102.091C348.66 77.582 341.352 53.5193 325.383 34.3368ZM330.333 100.474C328.076 120.938 317.733 139.326 301.207 152.25C284.683 165.175 263.96 171.093 242.842 168.899C199.256 164.386 167.588 126.341 172.246 84.0967C176.905 41.852 216.139 11.1587 259.739 15.6709C280.851 17.8582 299.823 27.8831 313.157 43.9014C326.488 59.9182 332.589 80.0088 330.333 100.474Z" fill="#455A64"/>
<path d="M608.263 4.01885C608.347 4.13786 607.77 4.68315 607.194 5.45085C606.611 6.21367 606.24 6.91894 606.106 6.86821C605.979 6.82724 606.163 5.97467 606.797 5.14162C607.427 4.30467 608.191 3.9057 608.263 4.01885Z" fill="#263238"/>
<path d="M329.745 35.3065C312.916 15.5822 288.975 3.23604 262.33 0.542709C207.325 -5.01781 157.79 32.7854 151.909 84.8086C148.301 116.734 161.978 146.691 185.779 166.372L97.958 263.842L110.561 274L199.12 175.707C211.464 182.911 225.645 187.688 241.003 189.24C244.634 189.607 248.253 189.789 251.856 189.789C274.679 189.789 296.652 182.482 314.666 168.735C335.521 152.82 348.574 130.175 351.422 104.974C354.271 79.7729 346.573 55.0307 329.745 35.3065ZM334.959 103.311C332.581 124.354 321.682 143.262 304.267 156.55C286.854 169.839 265.017 175.925 242.763 173.671C196.834 169.029 163.464 129.911 168.373 86.4732C173.282 43.0355 214.625 11.4738 260.57 16.1151C282.817 18.3641 302.809 28.6721 316.86 45.1428C330.909 61.6103 337.337 82.2682 334.959 103.311Z" fill="#263238"/>
<path d="M351.773 85.1203L351.464 85.5L352.003 93.6203L351.464 103L350.388 107.5L346.929 109.62L363.076 102.5L351.773 85.1203Z" fill="#BF7A62"/>
<path d="M357.457 246.937L388.267 231.603L427.79 236.462C430.416 238.468 432.236 241.548 432.751 244.861C432.92 245.948 432.929 247.152 432.302 248.048C431.415 249.317 429.603 249.474 428.123 249.098C426.643 248.723 425.264 247.944 423.749 247.761C420.809 247.404 418.095 249.33 415.886 251.35C413.676 253.368 411.476 255.672 408.59 256.347C406.051 256.94 403.378 256.146 401.07 254.91C398.763 253.674 396.702 252.006 394.45 250.667C390.266 248.178 385.332 246.858 380.535 247.499C376.7 248.012 373.103 249.733 369.282 250.354C365.46 250.974 359.531 250.281 357.457 246.937Z" fill="#455A64"/>
<path d="M430.911 309.552C430.911 309.552 405.673 221.418 405.195 218.6C404.763 216.053 408.697 154.31 410.457 138.288L382.66 138.527C382.66 138.527 382.656 138.625 382.648 138.795L369.437 139.127L375.358 314.421L392.449 315.77L392.335 257.936C403.115 285.824 415.607 316.923 415.607 316.923L430.911 309.552Z" fill="#D89377"/>
<path d="M381.064 214.561C381.117 214.569 381.013 215.247 380.949 216.481C380.88 217.714 380.851 219.504 381.025 221.704C381.202 223.902 381.579 226.51 382.271 229.338C382.921 232.18 384.116 235.148 385.284 238.319C387.627 244.647 389.719 250.387 391.208 254.551C391.917 256.572 392.503 258.239 392.944 259.493C393.342 260.664 393.546 261.318 393.51 261.332C393.475 261.345 393.204 260.717 392.744 259.57C392.262 258.333 391.621 256.686 390.844 254.692C389.262 250.563 387.113 244.846 384.77 238.518C384.188 236.935 383.62 235.389 383.071 233.894C382.537 232.383 382.118 230.893 381.778 229.461C381.106 226.594 380.766 223.954 380.637 221.73C380.511 219.505 380.599 217.698 380.735 216.461C380.798 215.841 380.877 215.364 380.942 215.044C381.005 214.724 381.046 214.557 381.064 214.561Z" fill="#BF7A62"/>
<path d="M392.376 278.931C392.407 278.397 392.767 259.319 392.767 259.319C392.767 259.319 386.571 241.613 386.411 242.151C386.25 242.689 392.376 278.931 392.376 278.931Z" fill="#BF7A62"/>
<path d="M374.389 314.319L374.435 312.348L392.558 312.72L392.472 319.22L391.352 319.273C386.368 319.465 365.999 319.889 362.689 318.795C358.997 317.574 374.389 314.319 374.389 314.319Z" fill="#E8505B"/>
<g opacity="0.3">
<path d="M385.933 318.956C386.217 317.416 387.08 315.997 388.304 315.058C389.528 314.118 391.023 313.638 392.545 313.791L392.458 318.957L385.933 318.956Z" fill="white"/>
</g>
<path opacity="0.3" d="M366.863 316.183C366.863 316.183 361.462 317.673 362.117 318.591C362.771 319.51 383.371 319.874 392.472 319.22L392.45 318.806L368.418 318.591C368.418 318.591 367.913 316.248 366.863 316.183Z" fill="white"/>
<path d="M392.734 318.801C392.734 318.808 392.627 318.818 392.423 318.83C392.156 318.842 391.862 318.854 391.531 318.869C390.64 318.892 389.543 318.922 388.249 318.956C385.478 319.008 381.648 319.03 377.419 318.959C373.189 318.886 369.361 318.735 366.593 318.589C365.302 318.511 364.206 318.444 363.316 318.391C362.985 318.365 362.693 318.342 362.425 318.322C362.222 318.303 362.116 318.289 362.116 318.283C362.116 318.275 362.224 318.273 362.427 318.277C362.695 318.285 362.988 318.294 363.32 318.304C364.211 318.338 365.306 318.38 366.599 318.43C369.367 318.536 373.194 318.662 377.422 318.734C381.649 318.805 385.476 318.809 388.247 318.797C389.541 318.791 390.638 318.785 391.529 318.781C391.86 318.782 392.154 318.783 392.421 318.784C392.626 318.788 392.733 318.793 392.734 318.801Z" fill="#263238"/>
<path d="M368.419 318.879C368.352 318.886 368.314 318.083 367.833 317.264C367.365 316.437 366.698 316.015 366.737 315.958C366.751 315.902 367.518 316.264 368.021 317.15C368.534 318.03 368.473 318.893 368.419 318.879Z" fill="#263238"/>
<path d="M373.789 316.207C373.737 316.239 373.488 315.917 373.232 315.488C372.975 315.059 372.81 314.684 372.861 314.652C372.913 314.62 373.162 314.942 373.418 315.371C373.674 315.8 373.84 316.175 373.789 316.207Z" fill="#263238"/>
<path d="M375.263 315.441C375.222 315.487 374.94 315.287 374.634 314.995C374.329 314.704 374.113 314.43 374.154 314.386C374.195 314.34 374.477 314.54 374.783 314.831C375.089 315.123 375.304 315.396 375.263 315.441Z" fill="#263238"/>
<path d="M376.215 313.714C376.215 313.776 375.792 313.823 375.271 313.821C374.75 313.818 374.329 313.765 374.33 313.702C374.33 313.64 374.752 313.593 375.273 313.595C375.794 313.599 376.216 313.652 376.215 313.714Z" fill="#263238"/>
<path d="M376.553 312.489C376.572 312.545 376.11 312.75 375.497 312.785C374.885 312.823 374.402 312.674 374.415 312.617C374.427 312.553 374.903 312.597 375.485 312.56C376.067 312.527 376.535 312.427 376.553 312.489Z" fill="#263238"/>
<path d="M373.203 314.584C373.204 314.609 372.758 314.657 372.044 314.555C371.688 314.506 371.267 314.411 370.814 314.255C370.59 314.168 370.354 314.103 370.113 313.945C369.999 313.864 369.874 313.752 369.832 313.571C369.787 313.393 369.883 313.194 370.015 313.1C371.134 312.531 372.233 313.19 372.634 313.784C372.856 314.087 372.954 314.381 372.999 314.583C373.042 314.787 373.036 314.903 373.024 314.904C372.983 314.918 372.953 314.434 372.513 313.881C372.295 313.61 371.964 313.344 371.534 313.204C371.127 313.073 370.544 313.029 370.15 313.276C369.963 313.413 370.032 313.636 370.234 313.764C370.423 313.894 370.669 313.975 370.881 314.061C371.317 314.224 371.724 314.331 372.07 314.4C372.762 314.538 373.205 314.548 373.203 314.584Z" fill="#263238"/>
<path d="M372.902 314.637C372.885 314.65 372.719 314.344 372.782 313.81C372.815 313.549 372.914 313.239 373.114 312.948C373.323 312.688 373.593 312.329 374.089 312.36C374.357 312.4 374.483 312.716 374.437 312.915C374.413 313.122 374.318 313.299 374.232 313.441C374.055 313.735 373.855 313.972 373.672 314.15C373.302 314.508 373.013 314.642 373 314.62C372.98 314.59 373.235 314.411 373.561 314.04C373.723 313.855 373.9 313.62 374.058 313.336C374.222 313.088 374.338 312.639 374.049 312.58C373.759 312.547 373.457 312.837 373.276 313.071C373.09 313.324 372.984 313.599 372.936 313.837C372.838 314.319 372.941 314.629 372.902 314.637Z" fill="#263238"/>
<path d="M392.451 313.738C392.446 313.78 391.935 313.678 391.117 313.762C390.308 313.84 389.178 314.159 388.188 314.939C387.199 315.719 386.607 316.756 386.326 317.537C386.038 318.325 386.001 318.856 385.961 318.85C385.948 318.849 385.944 318.717 385.967 318.478C385.99 318.239 386.052 317.895 386.18 317.485C386.431 316.669 387.022 315.576 388.055 314.761C389.087 313.949 390.271 313.643 391.105 313.604C391.525 313.582 391.866 313.609 392.097 313.648C392.328 313.686 392.453 313.724 392.451 313.738Z" fill="#263238"/>
<path d="M383.692 317.114C383.699 317.173 382.52 317.35 381.054 317.336C379.587 317.327 378.411 317.131 378.419 317.072C378.426 317.008 379.603 317.102 381.056 317.111C382.508 317.125 383.686 317.049 383.692 317.114Z" fill="#263238"/>
<path d="M387.229 317.171C387.272 317.216 387.128 317.424 387.004 317.699C386.875 317.972 386.808 318.218 386.746 318.213C386.688 318.212 386.659 317.92 386.805 317.604C386.951 317.287 387.19 317.126 387.229 317.171Z" fill="#263238"/>
<path d="M388.59 315.496C388.632 315.54 388.513 315.731 388.322 315.921C388.133 316.111 387.944 316.23 387.902 316.186C387.861 316.142 387.98 315.952 388.17 315.761C388.36 315.571 388.548 315.452 388.59 315.496Z" fill="#263238"/>
<path d="M390.51 314.753C390.497 314.816 390.257 314.809 389.99 314.901C389.722 314.985 389.53 315.133 389.483 315.09C389.436 315.055 389.592 314.794 389.923 314.687C390.255 314.578 390.529 314.697 390.51 314.753Z" fill="#263238"/>
<path d="M391.874 314.411C391.895 314.47 391.789 314.563 391.639 314.62C391.488 314.676 391.349 314.675 391.328 314.618C391.307 314.56 391.413 314.466 391.563 314.409C391.714 314.352 391.853 314.353 391.874 314.411Z" fill="#263238"/>
<path d="M415.609 317.333L414.792 315.547L431.174 307.599L433.927 313.456L432.948 314.015C428.571 316.463 410.526 326.151 407.087 326.684C403.252 327.279 415.609 317.333 415.609 317.333Z" fill="#E8505B"/>
<g opacity="0.3">
<path d="M427.96 316.208C427.543 314.701 427.698 313.036 428.383 311.636C429.07 310.236 430.199 309.123 431.627 308.565L433.799 313.227L427.96 316.208Z" fill="white"/>
</g>
<path opacity="0.3" d="M409.686 322.44C409.686 322.44 405.502 326.241 406.487 326.763C407.473 327.286 426.068 318.2 433.928 313.456L433.728 313.096L412.126 323.885C412.126 323.885 410.654 322.018 409.686 322.44Z" fill="white"/>
<path d="M433.98 312.961C433.983 312.968 433.892 313.026 433.714 313.129C433.48 313.262 433.222 313.407 432.933 313.572C432.145 314 431.177 314.527 430.034 315.149C427.577 316.463 424.158 318.232 420.343 320.101C416.525 321.969 413.034 323.583 410.493 324.717C409.302 325.238 408.295 325.679 407.474 326.038C407.167 326.165 406.896 326.279 406.647 326.382C406.458 326.459 406.356 326.495 406.353 326.488C406.35 326.481 406.445 326.431 406.63 326.341C406.873 326.226 407.14 326.1 407.441 325.958C408.253 325.581 409.252 325.119 410.43 324.572C412.955 323.403 416.434 321.766 420.249 319.899C424.062 318.031 427.489 316.286 429.964 315.008C431.119 314.411 432.098 313.906 432.894 313.495C433.191 313.345 433.454 313.211 433.694 313.09C433.878 312.999 433.976 312.955 433.98 312.961Z" fill="#263238"/>
<path d="M412.252 324.142C412.196 324.179 411.812 323.478 411.025 322.965C410.247 322.438 409.465 322.365 409.476 322.297C409.465 322.241 410.308 322.214 411.144 322.777C411.985 323.33 412.306 324.131 412.252 324.142Z" fill="#263238"/>
<path d="M415.894 319.296C415.861 319.349 415.499 319.174 415.082 318.907C414.666 318.64 414.355 318.38 414.387 318.328C414.419 318.276 414.782 318.45 415.199 318.718C415.615 318.985 415.926 319.244 415.894 319.296Z" fill="#263238"/>
<path d="M416.88 317.938C416.863 317.998 416.524 317.947 416.123 317.826C415.722 317.705 415.411 317.559 415.428 317.499C415.445 317.44 415.784 317.49 416.185 317.611C416.586 317.732 416.897 317.879 416.88 317.938Z" fill="#263238"/>
<path d="M416.98 315.956C417.007 316.012 416.65 316.248 416.182 316.482C415.715 316.717 415.315 316.862 415.288 316.807C415.261 316.751 415.618 316.516 416.086 316.281C416.554 316.046 416.954 315.901 416.98 315.956Z" fill="#263238"/>
<path d="M416.75 314.706C416.792 314.747 416.466 315.141 415.933 315.452C415.401 315.766 414.905 315.854 414.892 315.796C414.874 315.734 415.319 315.556 415.824 315.257C416.331 314.962 416.706 314.659 416.75 314.706Z" fill="#263238"/>
<path d="M414.663 318.111C414.676 318.132 414.297 318.379 413.614 318.615C413.273 318.733 412.855 318.842 412.382 318.908C412.143 318.933 411.904 318.982 411.62 318.951C411.483 318.93 411.322 318.887 411.205 318.744C411.087 318.605 411.087 318.383 411.164 318.238C411.918 317.218 413.188 317.305 413.805 317.653C414.136 317.824 414.352 318.042 414.479 318.202C414.607 318.365 414.653 318.471 414.641 318.478C414.611 318.51 414.374 318.09 413.739 317.796C413.426 317.652 413.013 317.566 412.567 317.638C412.145 317.706 411.605 317.933 411.361 318.334C411.253 318.541 411.411 318.71 411.648 318.732C411.873 318.763 412.128 318.723 412.357 318.702C412.818 318.648 413.229 318.559 413.568 318.463C414.249 318.272 414.649 318.078 414.663 318.111Z" fill="#263238"/>
<path d="M414.418 318.297C414.408 318.316 414.126 318.118 413.95 317.612C413.865 317.363 413.82 317.04 413.871 316.689C413.945 316.361 414.03 315.916 414.488 315.716C414.745 315.629 414.996 315.855 415.041 316.054C415.11 316.251 415.102 316.453 415.086 316.619C415.056 316.963 414.981 317.266 414.894 317.509C414.719 317.998 414.518 318.25 414.497 318.236C414.466 318.218 414.616 317.941 414.746 317.461C414.811 317.221 414.866 316.93 414.885 316.604C414.923 316.307 414.832 315.852 414.547 315.932C414.273 316.034 414.13 316.431 414.07 316.724C414.014 317.036 414.039 317.331 414.099 317.566C414.221 318.042 414.448 318.272 414.418 318.297Z" fill="#263238"/>
<path d="M431.52 308.559C431.535 308.598 431.033 308.742 430.338 309.19C429.647 309.629 428.776 310.432 428.228 311.581C427.683 312.732 427.604 313.93 427.694 314.757C427.779 315.594 427.978 316.086 427.94 316.1C427.927 316.104 427.865 315.987 427.783 315.763C427.699 315.539 427.604 315.203 427.541 314.777C427.409 313.932 427.463 312.683 428.032 311.483C428.602 310.284 429.528 309.469 430.258 309.054C430.624 308.841 430.94 308.71 431.164 308.639C431.389 308.569 431.517 308.546 431.52 308.559Z" fill="#263238"/>
<path d="M425.153 315.583C425.185 315.631 424.207 316.329 422.889 316.986C421.571 317.648 420.434 318.01 420.415 317.955C420.393 317.893 421.488 317.441 422.792 316.785C424.098 316.134 425.12 315.527 425.153 315.583Z" fill="#263238"/>
<path d="M428.343 314.018C428.402 314.039 428.363 314.291 428.371 314.594C428.375 314.898 428.423 315.147 428.364 315.172C428.312 315.197 428.158 314.949 428.152 314.599C428.145 314.249 428.289 313.994 428.343 314.018Z" fill="#263238"/>
<path d="M428.831 311.897C428.888 311.918 428.864 312.142 428.777 312.4C428.69 312.657 428.573 312.849 428.516 312.829C428.459 312.808 428.483 312.584 428.57 312.326C428.658 312.069 428.774 311.877 428.831 311.897Z" fill="#263238"/>
<path d="M430.227 310.355C430.242 310.417 430.024 310.521 429.826 310.724C429.622 310.922 429.515 311.141 429.454 311.125C429.396 311.116 429.423 310.811 429.672 310.563C429.921 310.314 430.219 310.295 430.227 310.355Z" fill="#263238"/>
<path d="M431.298 309.425C431.342 309.468 431.288 309.599 431.178 309.719C431.067 309.839 430.943 309.901 430.899 309.859C430.855 309.817 430.908 309.686 431.019 309.566C431.129 309.446 431.254 309.383 431.298 309.425Z" fill="#263238"/>
<path d="M409.714 133.319L409.722 133.317C402.119 119.851 400.196 121.425 402.772 113.582L410.195 88.078L407.073 72.0705C403.246 68.2944 398.434 66.8469 393.913 67.1414L378.408 68.234C378.408 68.234 370.778 66.521 359.54 77.7058L351.755 85.1467L361.56 104.202L362.049 112.84L369.12 136.481L367.235 146.904C366.416 154.837 356.001 245.792 357.413 247.229C358.888 248.73 380.593 237.6 385.85 242.148C391.107 246.695 401.689 249.483 407.66 247.525C413.629 245.568 422.583 233.395 431.618 241.602C431.615 241.6 428.661 160.905 409.714 133.319Z" fill="#263238"/>
<path d="M401.18 68.2369C401.18 68.2369 417.33 72.6421 414.945 84.4551C413.773 90.265 406.031 102.382 406.031 102.382L387.727 93.5124L401.18 68.2369Z" fill="#263238"/>
<path d="M368.242 141.327C368.242 141.327 369.103 140.464 370.974 139.348C372.814 138.261 375.841 136.885 379.766 137.128C381.686 137.259 383.865 137.691 385.819 138.972C387.766 140.202 389.565 142.1 390.546 144.581C391.034 145.813 391.299 147.191 391.214 148.593C391.136 150 390.688 151.387 390.019 152.653C388.712 155.217 386.659 157.347 385.299 159.962C383.861 162.563 383.81 165.572 384.014 168.364C384.183 171.164 384.606 173.958 383.993 176.57C383.716 177.863 383.262 179.091 382.603 180.162C381.953 181.23 381.092 182.161 380.037 182.706C378.993 183.259 377.819 183.44 376.746 183.278C375.668 183.119 374.708 182.678 373.874 182.16C372.193 181.116 371.037 179.724 369.941 178.657C368.847 177.572 367.855 176.691 367.01 176.017C366.164 175.344 365.462 174.883 364.975 174.594C364.488 174.301 364.215 174.181 364.224 174.157C364.227 174.149 364.299 174.173 364.434 174.228C364.57 174.28 364.769 174.369 365.022 174.503C365.53 174.765 366.256 175.203 367.126 175.858C367.996 176.513 369.014 177.379 370.133 178.45C371.26 179.512 372.415 180.861 374.056 181.851C374.868 182.342 375.79 182.75 376.798 182.888C377.803 183.029 378.885 182.849 379.847 182.331C380.818 181.823 381.621 180.946 382.233 179.925C382.854 178.902 383.286 177.718 383.547 176.468C384.127 173.961 383.709 171.225 383.529 168.397C383.436 166.979 383.378 165.516 383.546 164.034C383.705 162.557 384.137 161.06 384.861 159.723C386.273 157.021 388.326 154.897 389.59 152.419C390.24 151.197 390.663 149.883 390.741 148.561C390.827 147.239 390.582 145.934 390.122 144.755C389.2 142.38 387.475 140.531 385.602 139.329C383.729 138.078 381.629 137.64 379.743 137.485C375.913 137.202 372.921 138.494 371.068 139.52C370.125 140.038 369.433 140.516 368.964 140.838C368.752 140.988 368.578 141.111 368.434 141.212C368.312 141.295 368.247 141.334 368.242 141.327Z" fill="#FAFAFA"/>
<path d="M429.715 216.965C429.716 216.974 429.631 216.994 429.465 217.027C429.269 217.061 429.025 217.104 428.723 217.156C428.069 217.264 427.106 217.416 425.861 217.589C423.373 217.913 419.752 218.439 415.238 218.325C412.988 218.254 410.51 218.005 407.934 217.314C405.365 216.636 402.68 215.539 400.203 213.793C397.749 212.056 395.453 209.639 394.151 206.531C392.846 203.462 392.398 199.813 393.337 196.349C393.819 194.626 394.686 193.043 395.806 191.729C396.94 190.427 398.259 189.383 399.515 188.352C400.775 187.324 401.983 186.281 402.933 185.06C403.876 183.837 404.486 182.418 404.781 180.954C405.393 178.017 405.108 175.099 405.238 172.39C405.31 169.678 405.889 167.096 407.078 165.098C408.193 163.061 409.698 161.558 411.135 160.462C412.585 159.366 414.017 158.705 415.219 158.316C416.423 157.915 417.403 157.786 418.062 157.728C418.37 157.717 418.617 157.707 418.816 157.7C418.986 157.697 419.073 157.699 419.073 157.708C419.088 157.801 417.649 157.666 415.28 158.504C414.104 158.916 412.708 159.594 411.3 160.69C409.905 161.788 408.449 163.277 407.383 165.276C406.244 167.24 405.705 169.724 405.648 172.407C405.534 175.085 405.845 178.01 405.226 181.055C404.928 182.57 404.289 184.077 403.305 185.361C402.316 186.638 401.079 187.707 399.818 188.741C398.559 189.778 397.265 190.81 396.174 192.065C395.103 193.328 394.277 194.835 393.814 196.491C392.911 199.817 393.336 203.356 394.595 206.333C395.847 209.344 398.068 211.699 400.463 213.411C402.878 215.128 405.51 216.224 408.039 216.91C410.572 217.608 413.019 217.875 415.251 217.969C419.725 218.129 423.346 217.66 425.837 217.396C427.055 217.253 428.015 217.14 428.709 217.058C429.014 217.026 429.261 216.999 429.458 216.978C429.627 216.96 429.714 216.956 429.715 216.965Z" fill="#FAFAFA"/>
<path d="M384.319 241.352C384.31 241.338 384.418 241.246 384.644 241.101C384.856 240.947 385.244 240.79 385.564 240.446C385.9 240.099 385.76 239.442 385.549 238.774C385.33 238.097 384.944 237.377 384.506 236.575C383.636 234.971 382.621 233.052 381.362 231.01C380.095 228.979 378.576 226.809 376.601 224.911C374.637 223.01 372.412 221.581 370.196 220.831C367.981 220.079 365.823 219.918 364.094 220.242C362.349 220.546 361.081 221.308 360.29 221.909C359.499 222.521 359.127 222.95 359.092 222.915C359.08 222.903 359.165 222.79 359.338 222.584C359.507 222.373 359.787 222.091 360.171 221.754C360.94 221.092 362.226 220.252 364.029 219.89C365.819 219.508 368.047 219.635 370.338 220.387C372.635 221.137 374.933 222.599 376.94 224.543C378.96 226.484 380.491 228.699 381.748 230.763C382.998 232.839 383.985 234.782 384.815 236.407C385.23 237.217 385.609 237.971 385.813 238.69C385.916 239.05 385.982 239.388 385.998 239.718C386.023 240.051 385.904 240.386 385.705 240.58C385.305 240.959 384.921 241.062 384.691 241.193C384.453 241.305 384.329 241.369 384.319 241.352Z" fill="#FAFAFA"/>
<path d="M405.161 126.667C405.179 126.684 405.045 126.893 404.703 127.17C404.363 127.446 403.793 127.767 403.021 127.931C402.253 128.088 401.28 128.073 400.294 127.697C399.307 127.323 398.37 126.563 397.669 125.569C396.24 123.542 396.135 121.179 396.276 119.649C396.43 118.082 396.758 117.166 396.809 117.179C396.89 117.196 396.687 118.14 396.626 119.672C396.577 121.175 396.742 123.392 398.071 125.273C398.723 126.196 399.574 126.901 400.46 127.262C401.347 127.628 402.243 127.68 402.962 127.578C404.432 127.358 405.108 126.581 405.161 126.667Z" fill="#FAFAFA"/>
<path d="M406.524 98.6053C406.526 98.6229 406.401 98.6512 406.155 98.6911C405.91 98.7272 405.543 98.7497 405.07 98.7253C404.137 98.6599 402.734 98.3439 401.349 97.2952C400.674 96.7656 399.996 96.0662 399.51 95.1531C399.01 94.2518 398.706 93.1573 398.654 91.9945C398.612 90.8347 398.812 89.589 399.367 88.4448C399.908 87.2742 400.854 86.3602 401.674 85.4023C402.084 84.9185 402.457 84.42 402.708 83.8815C402.949 83.3421 403.065 82.7617 402.982 82.1988C402.825 81.0595 402.098 80.0908 401.588 79.0744C401.035 78.0599 400.825 76.8864 400.959 75.8544C401.081 74.8155 401.49 73.8986 402.035 73.2108C403.155 71.8169 404.633 71.4287 405.554 71.3721C406.029 71.3428 406.397 71.3896 406.641 71.4384C406.883 71.4921 407.006 71.5379 407.003 71.5535C406.996 71.6042 406.483 71.4599 405.572 71.5691C404.69 71.6803 403.309 72.1144 402.31 73.4332C401.328 74.7062 400.89 76.942 401.993 78.8559C402.484 79.8284 403.261 80.8029 403.464 82.1325C403.565 82.79 403.429 83.4855 403.155 84.0961C402.872 84.7058 402.469 85.2374 402.047 85.7359C401.196 86.726 400.299 87.5942 399.802 88.6652C399.28 89.7246 399.084 90.8893 399.109 91.9779C399.158 94.1923 400.278 96.0057 401.562 97.0114C402.851 98.0454 404.186 98.4063 405.087 98.5292C406.004 98.6355 406.521 98.5565 406.524 98.6053Z" fill="#FAFAFA"/>
<path d="M362.82 107.996C362.829 107.94 363.368 108.129 364.354 108.071C365.315 108.016 366.797 107.685 368.096 106.477C369.404 105.328 370.243 103.086 369.669 100.799C369.402 99.6559 368.746 98.6092 367.795 97.7566C366.88 96.8787 365.718 96.0808 364.99 94.7873C364.281 93.489 364.193 91.9945 364.353 90.6777C364.495 89.3442 364.798 88.1044 365 86.9231C365.207 85.7437 365.325 84.6112 365.199 83.5743C365.081 82.5373 364.718 81.6204 364.165 80.9337C363.067 79.5397 361.634 78.9973 360.683 78.8569C359.708 78.7018 359.156 78.8569 359.15 78.7993C359.147 78.7818 359.281 78.7457 359.543 78.6911C359.804 78.6481 360.2 78.6101 360.707 78.6608C361.702 78.7476 363.229 79.251 364.438 80.7074C365.045 81.4233 365.466 82.4203 365.606 83.5196C365.758 84.6209 365.648 85.8042 365.45 87.004C365.255 88.2068 364.965 89.4427 364.836 90.7294C364.688 92.0082 364.786 93.37 365.42 94.5357C366.064 95.6955 367.177 96.4817 368.125 97.3918C369.109 98.2756 369.848 99.4608 370.113 100.688C370.708 103.153 369.755 105.558 368.33 106.748C366.917 107.992 365.354 108.274 364.36 108.27C363.851 108.273 363.461 108.196 363.202 108.135C362.946 108.06 362.816 108.013 362.82 107.996Z" fill="#FAFAFA"/>
<path d="M386.294 19.2975C389.531 18.6361 393.032 19.4741 395.648 21.5362C398.264 23.5984 399.952 26.8486 400.158 30.2238C400.272 32.0947 400.046 34.2408 401.336 35.5694C402.245 36.5048 403.634 36.7077 404.768 37.335C406.915 38.5221 407.969 41.4388 407.094 43.7721C406.656 44.9407 405.818 45.9181 405.39 47.0916C404.761 48.8202 404.241 50.7975 404.748 52.567C407.402 61.8271 400.992 62.9674 397.574 63.5849C392.758 64.455 387.871 62.8874 387.371 57.7204C387.209 56.0523 384.31 56.2416 382.687 56.4571C380.729 56.7176 379.283 58.3681 377.853 59.763C375.633 61.9305 372.963 63.7342 369.956 64.3507C366.948 64.9672 363.575 64.2424 361.439 61.9881C359.302 59.7337 358.779 55.864 360.664 53.3854C358.381 52.326 356.618 50.1575 356.012 47.6671C355.408 45.1758 355.973 42.4142 357.506 40.3833C358.676 38.8313 360.372 37.6812 361.209 35.9176C361.917 34.4261 362.675 31.0217 363.228 29.4639C364.013 27.2515 366.681 23.453 368.747 22.4219" fill="#455A64"/>
<path d="M394.86 69.9089L376.976 70.1693C376.671 68.0574 376.064 59.8303 376.064 59.8303C376.064 59.8303 368.57 59.366 367.783 51.8119C366.997 44.2569 366.68 26.7657 366.68 26.7657C374.882 22.178 384.865 22.497 392.773 27.5988L393.946 28.3557L394.86 69.9089Z" fill="#D89377"/>
<path d="M375.468 46.8858C375.468 46.8039 374.827 46.7336 373.791 46.6878C373.523 46.6839 373.309 46.6419 373.275 46.4976C373.212 46.3376 373.289 46.0362 373.394 45.6986C373.592 44.9846 373.793 44.2618 374.004 43.5048C374.838 40.3823 375.388 37.8159 375.233 37.7729C375.079 37.729 374.277 40.2253 373.443 43.3478C373.248 44.1096 373.061 44.8363 372.877 45.5543C372.809 45.8791 372.657 46.2644 372.836 46.7005C372.931 46.919 373.154 47.0614 373.334 47.0916C373.515 47.1297 373.666 47.115 373.794 47.1082C374.829 47.0467 375.469 46.9677 375.468 46.8858Z" fill="#263238"/>
<path d="M376.041 59.722C376.041 59.722 380.744 59.6606 385.41 55.9908C385.41 55.9908 383.635 61.6535 376.204 61.6827L376.041 59.722Z" fill="#BF7A62"/>
<path d="M381.028 38.9893C381.035 39.4956 380.623 39.9199 380.107 39.9375C379.591 39.9551 379.167 39.56 379.159 39.0537C379.151 38.5475 379.564 38.1231 380.079 38.1046C380.595 38.087 381.02 38.4831 381.028 38.9893Z" fill="#263238"/>
<path d="M382.566 37.9475C382.448 38.0704 381.749 37.5183 380.742 37.4998C379.736 37.4666 378.987 37.9826 378.88 37.8539C378.828 37.7973 378.951 37.5739 379.276 37.3408C379.597 37.1086 380.142 36.8872 380.77 36.9028C381.397 36.9194 381.92 37.1672 382.218 37.4149C382.524 37.6647 382.624 37.8929 382.566 37.9475Z" fill="#263238"/>
<path d="M370.717 38.9581C370.725 39.4644 370.313 39.8887 369.797 39.9063C369.281 39.9238 368.857 39.5288 368.849 39.0225C368.841 38.5162 369.254 38.0909 369.769 38.0734C370.285 38.0558 370.71 38.4518 370.717 38.9581Z" fill="#263238"/>
<path d="M372.053 38.1056C371.934 38.2285 371.235 37.6764 370.23 37.6578C369.224 37.6247 368.475 38.1407 368.368 38.0119C368.316 37.9553 368.437 37.732 368.765 37.4988C369.086 37.2667 369.631 37.0452 370.258 37.0608C370.886 37.0774 371.409 37.3252 371.707 37.573C372.01 37.8227 372.111 38.0509 372.053 38.1056Z" fill="#263238"/>
<path d="M377.163 49.5459C377.076 49.2981 376.989 49.0416 377.002 48.7782C377.015 48.5148 377.156 48.2407 377.4 48.1549C377.575 48.0934 377.782 48.1344 377.937 48.031C378.148 47.8905 378.146 47.5764 378.263 47.3472C378.423 47.037 378.815 46.9102 379.15 46.9794C379.486 47.0487 379.771 47.2731 380.012 47.5228C380.289 47.8096 380.538 48.1666 380.543 48.5704C380.547 48.9675 380.306 49.3371 379.987 49.5635C379.668 49.7898 379.282 49.8922 378.898 49.9507C378.483 50.0141 378.061 50.0317 377.642 50.0024C377.521 49.9937 377.396 49.981 377.29 49.9205C377.185 49.861 377.1 49.743 377.114 49.6191" fill="#BF7A62"/>
<path d="M376.433 49.6959C378.098 49.5213 379.629 48.3517 380.266 46.7656L376.433 49.6959Z" fill="#BF7A62"/>
<path d="M380.266 46.7668C380.396 46.7853 380.087 48.0554 378.883 48.9645C377.689 49.8873 376.413 49.8298 376.433 49.6971C376.415 49.5488 377.53 49.384 378.587 48.5577C379.66 47.7549 380.131 46.7073 380.266 46.7668Z" fill="#263238"/>
<path d="M368.403 35.3147C369.255 34.9002 370.243 34.788 371.163 35.0006L368.403 35.3147Z" fill="#BF7A62"/>
<path d="M371.163 34.9997C371.089 35.2747 370.489 35.343 369.813 35.4269C369.135 35.4972 368.535 35.5664 368.403 35.3147C368.269 35.0757 368.816 34.5178 369.703 34.4173C370.59 34.3149 371.243 34.7373 371.163 34.9997Z" fill="#263238"/>
<path d="M378.777 35.3889C380.038 34.9441 381.467 35.0241 382.673 35.6074L378.777 35.3889Z" fill="#BF7A62"/>
<path d="M382.673 35.6074C382.542 35.862 381.711 35.6659 380.719 35.6201C379.726 35.5547 378.881 35.6571 378.777 35.3889C378.664 35.1411 379.537 34.5334 380.773 34.6056C382.008 34.6719 382.812 35.3743 382.673 35.6074Z" fill="#263238"/>
<path d="M382.867 19.1512C381.918 17.8196 380.236 17.2627 378.636 17.0803C373.8 16.5272 368.75 18.8702 365.966 22.9584C364.334 25.3561 363.513 28.701 365.038 31.1729C366.056 32.8234 368.057 33.7745 369.945 33.5052C371.832 33.236 373.504 31.7601 374.043 29.8882C374.073 32.1679 376.174 34.1978 378.399 34.0954C380.623 33.993 382.538 31.7787 382.368 29.5048C382.956 30.9944 383.687 32.5366 385.017 33.3892C386.346 34.2417 388.428 34.0369 389.114 32.5912C389.949 33.6077 391.125 34.6436 392.384 34.3276C393.457 34.0593 394.099 32.8439 394.087 31.7123C394.073 30.5808 393.555 29.5253 393.005 28.545C390.562 24.1934 386.961 20.1939 382.233 18.8741" fill="#455A64"/>
<path d="M388.547 29.4775C390.791 33.4565 390.831 38.645 388.647 42.6591C387.956 43.9291 387.056 45.1007 386.62 46.4849C386.183 47.8691 386.349 49.6025 387.487 50.4726C388.184 51.0052 389.249 51.2735 389.414 52.1485C389.496 52.5835 389.306 53.0166 389.151 53.4302C388.497 55.1724 388.418 57.1351 388.927 58.927C389.266 60.1181 389.32 61.594 392.091 62.8621C393.469 63.4932 394.215 64.5653 397.195 63.78C402.415 62.4046 400.571 50.4619 400.086 44.9631C399.599 39.4654 397.099 29.6736 394.087 25.0957" fill="#455A64"/>
<path d="M376.639 66.9434C376.639 66.9434 371.231 87.6313 374.677 85.5818C378.124 83.5323 394.86 69.9089 394.86 69.9089L386.398 63.3683L376.639 66.9434Z" fill="#D89377"/>
<path d="M325.7 102.576C325.101 100.552 317.617 96.3744 318.749 95.2477C320.224 93.7797 326.369 99.969 326.925 100.453C327.466 100.923 328.162 100.11 327.637 99.7027C326.883 99.1155 319.105 92.7447 320.54 91.2883C321.336 90.4806 322.589 92.1233 322.589 92.1233C322.589 92.1233 329.45 98.6463 330.106 97.9352C330.772 97.2133 326.866 93.2412 325.459 91.9994C324.069 90.7723 324.056 89.5812 325.082 89.3881C325.781 89.2564 330.176 92.9524 331.54 94.2147C332.903 95.476 336.588 99.0082 336.113 95.7208C336.105 95.6691 336.104 95.6204 336.098 95.5696C335.544 92.3457 336.161 89.6739 336.852 89.0262C337.527 88.3931 338.579 88.9872 338.632 89.9295C338.651 90.0807 338.653 90.2387 338.607 90.4045C338.588 90.4738 338.58 90.5704 338.565 90.6484C338.481 91.5839 338.624 92.9437 338.774 93.9943C338.915 94.9892 339.214 95.9549 339.672 96.8446C340.201 97.8718 340.696 98.738 341.13 99.453C346.135 102.299 360.533 109.813 374.97 110.991C377.577 111.205 389.095 92.5808 389.095 92.5808L406.208 100.874C404.447 103.942 401.421 110.59 392.567 122.914C378.121 143.022 332.958 109.512 332.958 109.512L332.534 109.298C328.928 107.396 324.64 105.038 322.553 103.527C318.67 100.715 318.903 100.347 319.29 99.929C320.328 98.8033 326.298 104.602 325.7 102.576Z" fill="#D89377"/>
<path d="M606.898 275.567V307.012H648.704H694.813V275.567H606.898Z" fill="#F5F5F5"/>
<path d="M603.209 266.776V275.567H697.887V266.776H648.704H603.209Z" fill="#E0E0E0"/>
<path d="M650.548 307.012H694.813V275.567H697.887V266.776H648.704V274.754L650.548 307.012Z" fill="#E0E0E0"/>
<path d="M637.023 280.639H619.194V285.372H637.023V280.639Z" fill="#E0E0E0"/>
<path d="M639.792 291.289H616.899V301.284H639.792V291.289Z" fill="white"/>
<path d="M602.689 315.803V347.247H644.494H690.604V315.803H602.689Z" fill="#F5F5F5"/>
<path d="M599 307.012V315.803H693.678V307.012H644.494H599Z" fill="#E0E0E0"/>
<path d="M646.339 347.247H690.604V315.803H693.678V307.012H644.494V314.989L646.339 347.247Z" fill="#E0E0E0"/>
<path d="M632.813 320.874H614.984V325.607H632.813V320.874Z" fill="#E0E0E0"/>
<path d="M635.583 331.525H612.69V341.52H635.583V331.525Z" fill="white"/>
</svg>
